<svg xmlns="http://www.w3.org/2000/svg" width="211" height="89" viewBox="0 0 211 89">
    <g fill="none" fill-rule="evenodd" stroke="#FFF" stroke-linejoin="round">
        <path d="M120 45.568h-18.667L80 53.514 58.667 58.81H48l-13.334-2.648L24 49.54v-5.297l-2.667-7.946L18.666 31v7.946L16 42.919l-5.333 1.325H5.333L0 42.919l5.333 5.298 8 5.297h5.333L32 66.757l21.333 10.595L74.666 80h8"/>
        <path d="M53 78l-5.286-18.847-15.857 8.077L34.5 56.461 18.643 53.77 16 43l7.928 6.73-5.285 4.039M96 80h5.368l26.843-5.333L141.632 64 147 53.334v-2.667l-2.684-5.333-2.684-2.667L136.263 40h-5.368l-10.737 5.334 2.684 8"/>
        <path d="M6 43.846v3.924l5.429-3.924L14.143 53l2.714-10.461L25 43.846l-5.429-5.23L22.285 36M35 55.667L53.667 77 59 58.334h21.333L99 55.667 123 53"/>
        <path d="M141.444 63.843l-13.306-2.66v13.295L114.83 66.5S98.765 55.472 98.864 55.866v10.635l2.66 13.294L114.832 66.5l7.984-13.294h10.645l10.646-7.976 66.532-44.002-69.194 41.343"/>
        <path d="M136.122 39.913l-2.662 13.294-13.306-7.976-21.29 10.635-18.63-2.659v5.318l21.29-13.294-2.66 10.635"/>
        <path d="M122.815 53.207l7.984-13.293 2.661 13.293-5.323 7.977"/>
        <path d="M101.525 45.231l21.29 7.976 5.322 7.977-13.306 5.317H98.864l-18.63-7.976-5.322 21.27-15.967-21.27L32.33 66.5l-7.984-17.282"/>
        <path d="M80.235 85.112h7.983l-2.66-10.635 10.644 5.318-2.661-10.635 5.323 5.317-2.662 5.318-7.984 5.317-7.983 2.66v-2.66l2.661-5.317 2.661-5.318 2.661-2.658 5.323-2.66h2.661l2.662 5.318M133.46 53.207h13.307l-18.63 7.977"/>
        <path d="M74.912 79.795l13.306-7.976 5.323-2.66-5.323 15.953-5.322-5.317M98.864 66.5l-2.662 2.66M88.218 71.819l-7.983-13.294c.296.098-26.613 18.611-26.613 18.611M98.864 74.477l2.66 5.317M141.444 42.572h6.682l.59-4.344 5.26.476 1.485-4.507 4.702.414.954-3.793h4.781l1.834-3.953h4.143l2.595-4.026 3.832-.224 3.006-3.862 4.202-.905 1.28-2.37 3.967-1.1 3.284-3.233 3.38-1.175 1.25-1.59"/>
    </g>
</svg>
