<svg xmlns="http://www.w3.org/2000/svg" width="119" height="21" viewBox="0 0 119 21">
    <g fill="none" fill-rule="evenodd">
        <path fill="#FFF" d="M0 .441V18.16h2.594v-3.735l2.36-2.101 3.944 5.836h3.061l-5.162-7.42 5.37-4.772H8.794l-6.2 5.733V.156zM30.066 5.967h2.568v.96c1.063-.805 2.438-1.22 3.917-1.22 3.087 0 4.825 1.868 4.825 4.696v7.756h-2.568v-7.782c0-1.66-1.116-2.49-3.061-2.49-1.557 0-2.724.674-3.113 1.089v9.183h-2.568V5.967zM42.751 5.967h2.932l3.71 9.443 3.787-9.443h2.854l-5.448 12.192h-2.439zM65.803 11.233c.156-2.205-1.141-3.372-2.983-3.372-2.127 0-3.606 1.27-3.606 3.372h6.59zm-6.563 1.764c.156 1.738 1.401 3.217 3.943 3.217 2.024 0 4.125-1.064 4.93-1.583v2.361c-.675.467-2.647 1.427-5.085 1.427-4.436 0-6.408-2.75-6.408-6.512 0-3.683 2.49-6.2 6.2-6.2 3.788 0 5.396 2.802 5.396 5.37 0 .727-.052 1.245-.182 1.92H59.24zM71.236 5.967h2.568v1.66c.727-1.141 1.868-1.92 3.373-1.92 1.09 0 2.023.364 2.36.52v2.749c-.752-.467-1.92-.83-3.035-.83-1.27 0-2.335.83-2.698 1.323v8.69h-2.568V5.967zM81.686 15.046c1.09.804 2.697 1.246 4.124 1.246 1.142 0 2.517-.234 2.517-1.35 0-.804-.727-1.219-1.557-1.478l-1.92-.623c-1.608-.518-3.502-1.556-3.502-3.58 0-2.179 1.894-3.554 5.085-3.554 1.79 0 3.346.415 4.202.779v2.542a8.176 8.176 0 0 0-4.228-1.193c-1.116 0-2.413.207-2.413 1.323 0 .804.96 1.245 1.816 1.53l1.998.623c1.764.544 3.165 1.4 3.165 3.398 0 2.646-2.335 3.71-5.137 3.71-1.816 0-3.372-.467-4.15-.908v-2.465zM102.172 11.233c.156-2.205-1.141-3.372-2.983-3.372-2.127 0-3.606 1.27-3.606 3.372h6.59zm-6.563 1.764c.156 1.738 1.4 3.217 3.943 3.217 2.023 0 4.125-1.064 4.929-1.583v2.361c-.675.467-2.646 1.427-5.085 1.427-4.436 0-6.407-2.75-6.407-6.512 0-3.683 2.49-6.2 6.2-6.2 3.787 0 5.396 2.802 5.396 5.37 0 .727-.052 1.245-.182 1.92H95.61zM116.321 8.95c-.337-.39-1.4-1.064-3.01-1.064-2.49 0-3.994 1.583-3.994 4.073 0 2.465 1.193 4.28 3.943 4.28 1.634 0 2.698-.803 3.061-1.296V8.95zm2.594 9.21h-2.542v-1.194c-.778.83-2.05 1.453-3.554 1.453-3.84 0-6.122-2.517-6.122-6.434 0-3.424 2.257-6.278 6.2-6.278 1.167 0 2.516.364 3.424 1.116V.415l2.594-.285v18.03z"/>
        <path fill="#EB1D25" d="M17.369 7.148c-.755 0-1.461.291-1.995.825a2.817 2.817 0 0 0-.827 1.994c0 .757.294 1.466.827 1.999l4.089 4.088v1.358l5.666-5.454c.53-.531.82-1.237.82-1.989 0-.754-.293-1.463-.826-1.996a2.798 2.798 0 0 0-2.069-.824c-.781.02-1.5.35-2.026.93l-.78.863-.78-.863a2.801 2.801 0 0 0-2.099-.931m1.462 13.22a1.469 1.469 0 0 1-1.472-1.473v-1.97l-3.472-3.472a4.93 4.93 0 0 1 .002-6.97 4.947 4.947 0 0 1 3.607-1.437 4.88 4.88 0 0 1 2.752.922 4.94 4.94 0 0 1 6.362.517 4.895 4.895 0 0 1 1.443 3.484 4.892 4.892 0 0 1-1.443 3.484l-.014.014-6.814 6.557-.044.034c-.262.204-.584.31-.907.31"/>
    </g>
</svg>
