<svg xmlns="http://www.w3.org/2000/svg" width="16" height="16" viewBox="16 0 16 32">
    <path fill="#EB1D25" d="M17.369 7.148c-.755 0-1.461.291-1.995.825a2.817 2.817 0 0 0-.827 1.994c0 .757.294 1.466.827 1.999l4.089 4.088v1.358l5.666-5.454c.53-.531.82-1.237.82-1.989 0-.754-.293-1.463-.826-1.996a2.798 2.798 0 0 0-2.069-.824c-.781.02-1.5.35-2.026.93l-.78.863-.78-.863a2.801 2.801 0 0 0-2.099-.931m1.462 13.22a1.469 1.469 0 0 1-1.472-1.473v-1.97l-3.472-3.472a4.93 4.93 0 0 1 .002-6.97 4.947 4.947 0 0 1 3.607-1.437 4.88 4.88 0 0 1 2.752.922 4.94 4.94 0 0 1 6.362.517 4.895 4.895 0 0 1 1.443 3.484 4.892 4.892 0 0 1-1.443 3.484l-.014.014-6.814 6.557-.044.034c-.262.204-.584.31-.907.31"/>
</svg>
