<svg xmlns="http://www.w3.org/2000/svg" xmlns:xlink="http://www.w3.org/1999/xlink" width="1024" height="1024" viewBox="0 0 1024 1024">
    <defs>
        <linearGradient id="a" x1="50%" x2="50%" y1="100%" y2="0%">
            <stop offset="0%" stop-color="#FF2967"/>
            <stop offset="100%" stop-color="#FF5D39"/>
        </linearGradient>
        <path id="b" d="M0 0h678.257v720.633H0z"/>
    </defs>
    <g fill="none" fill-rule="evenodd">
        <path fill="url(#a)" d="M0 0h1024v1024H0z"/>
        <g fill="#FFF" fill-rule="nonzero" opacity=".15">
            <path d="M65 512.5C65 265.352 265.352 65 512.5 65S960 265.352 960 512.5 759.648 960 512.5 960 65 759.648 65 512.5zm890 0C955 268.114 756.886 70 512.5 70S70 268.114 70 512.5 268.114 955 512.5 955 955 756.886 955 512.5zm-720 0C235 359.241 359.241 235 512.5 235 665.759 235 790 359.241 790 512.5 790 665.759 665.759 790 512.5 790 359.241 790 235 665.759 235 512.5zm550 0C785 362.003 662.997 240 512.5 240S240 362.003 240 512.5 362.003 785 512.5 785 785 662.997 785 512.5z"/>
            <path d="M512 515.536L1.768 1025.768l-3.536-3.536L508.464 512-1.768 1.768l3.536-3.536L512 508.464 1022.232-1.768l3.536 3.536L515.536 512l510.232 510.232-3.536 3.536L512 515.536z"/>
            <path d="M955 1024V0h5v1024h-5zm-252 0V0h5v1024h-5zm-193.5 0V0h5v1024h-5zm-193.5 0V0h5v1024h-5zm-252 0V0h5v1024h-5z"/>
            <path d="M0 955h1024v5H0v-5zm0-252h1024v5H0v-5zm0-193.5h1024v5H0v-5zM0 316h1024v5H0v-5zM0 64h1024v5H0v-5z"/>
        </g>
        <g transform="translate(172 152)">
            <mask id="c" fill="#fff">
                <use xlink:href="#b"/>
            </mask>
            <path fill="#FFF" d="M609.985 337.037a19.464 19.464 0 0 1-4.166 14.405 19.464 19.464 0 0 1-13.133 7.241c-5.195.584-10.31-.896-14.403-4.166a19.465 19.465 0 0 1-7.24-13.129 19.466 19.466 0 0 1 4.164-14.405c3.732-4.67 9.323-7.349 15.34-7.349 4.48 0 8.698 1.477 12.196 4.272a19.47 19.47 0 0 1 7.242 13.131m-18.478 340.795c-24.234 0-43.95-19.716-43.95-43.949 0-24.235 19.716-43.95 43.95-43.95 24.235 0 43.951 19.715 43.951 43.95 0 24.233-19.716 43.95-43.95 43.95M313.573 428.836c-36.136 0-65.534-29.399-65.534-65.534 0-36.136 29.398-65.535 65.534-65.535 36.136 0 65.534 29.4 65.534 65.535s-29.398 65.534-65.534 65.534M590.512 42.8c24.235 0 43.951 19.716 43.951 43.95 0 24.235-19.716 43.951-43.95 43.951-24.235 0-43.95-19.716-43.95-43.95 0-24.235 19.715-43.95 43.95-43.95M131.396 173.374c-10.802 0-19.59-8.789-19.59-19.59 0-10.805 8.788-19.594 19.59-19.594 10.803 0 19.592 8.79 19.592 19.593 0 10.802-8.789 19.591-19.592 19.591M72.968 612.482c-16.634 0-30.169-13.534-30.169-30.169 0-16.634 13.535-30.169 30.17-30.169 16.634 0 30.168 13.535 30.168 30.17 0 16.634-13.534 30.168-30.169 30.168m518.54-65.35a86.576 86.576 0 0 0-47.282 14.07L405.16 421.132a106.951 106.951 0 0 0 15.763-43.18L533.65 364.95c4.012 8.922 10.085 16.748 17.917 23.006 11.182 8.934 24.615 13.655 38.851 13.655a63.77 63.77 0 0 0 7.023-.392c16.563-1.85 31.413-10.04 41.816-23.059 10.404-13.02 15.115-29.313 13.263-45.875-1.85-16.563-10.04-31.414-23.06-41.817-26.873-21.473-66.213-17.08-87.689 9.797a62.273 62.273 0 0 0-11.309 21.968l-112.265 12.95a108.358 108.358 0 0 0-12.76-29.248l143.89-142.86c12.61 6.847 26.66 10.426 41.185 10.426 47.834 0 86.75-38.916 86.75-86.75 0-47.835-38.916-86.75-86.75-86.75s-86.75 38.915-86.75 86.75a86.572 86.572 0 0 0 14.07 47.28l-141.81 140.797a108.068 108.068 0 0 0-62.448-19.86 108.704 108.704 0 0 0-40.459 7.846l-84.224-84.829a62.097 62.097 0 0 0 4.9-24.2c0-34.405-27.99-62.394-62.394-62.394-34.403 0-62.39 27.99-62.39 62.393 0 34.403 27.987 62.392 62.39 62.392 10 0 19.623-2.33 28.34-6.808l77.026 77.581c-20.185 20.213-31.524 47.35-31.524 76.354 0 15.194 3.222 30.246 9.378 44.054L104.62 516.57c-9.824-4.75-20.594-7.226-31.65-7.226C32.732 509.344 0 542.078 0 582.314c0 40.235 32.733 72.968 72.968 72.968 40.235 0 72.97-32.733 72.97-72.969 0-12.896-3.46-25.562-9.89-36.633l103.798-103.058c19.952 18.58 46.154 29.015 73.728 29.015a108.11 108.11 0 0 0 62.006-19.548l139.603 140.607c-6.848 12.612-10.427 26.66-10.427 41.187 0 47.834 38.916 86.75 86.751 86.75 47.834 0 86.75-38.916 86.75-86.75 0-47.835-38.916-86.75-86.75-86.75" mask="url(#c)"/>
        </g>
    </g>
</svg>
