<svg xmlns="http://www.w3.org/2000/svg" xmlns:xlink="http://www.w3.org/1999/xlink" viewBox="0 0 1260 720" width="100%" height="100%">
  <title>CityScape Animation</title>
<g id="cityscape">
  <rect style="fill:#000" x="0" y="1.46" width="1260" height="720">
  	<animate attributeName="fill" from="hsl(200,40%,0%)" to="hsl(200,40%,20%)" begin="6s" dur="10s" fill="freeze" />
  	<animate attributeName="fill" from="hsl(200,40%,20%)" to="hsl(200,40%,90%)" begin="18s" dur="10s" fill="freeze" />
  </rect>

  <g id="g1" class="t8">
    <rect height="55.52" width="46.66" y="1030" x="588.9" style="fill:hsl(200,40%,20%)">
    	<animate attributeName="fill" from="hsl(200,40%,20%)" to="orange" begin="move1.end + 0.4s" dur="10s" fill="freeze" />
    	<animate attributeName="fill" from="orange" to="silver" begin="12s" dur="10s" fill="freeze" />
    </rect>
    <rect height="28.04" width="23.96" y="1001" x="611.9" style="fill:hsl(200,40%,20%)">
    	<animate attributeName="fill" from="hsl(200,40%,20%)" to="orange" begin="move1.end + 0.8s" dur="6s" fill="freeze" />
    	<animate attributeName="fill" from="orange" to="silver" begin="12s" dur="10s" fill="freeze" />
    </rect>
    <rect height="28.04" width="23.96" y="1001" x="588.3" style="fill:hsl(200,40%,20%)">
    	<animate attributeName="fill" from="hsl(200,40%,20%)" to="orange" begin="move1.end + 1.2s" dur="6s" fill="freeze" />
    	<animate attributeName="fill" from="orange" to="silver" begin="12s" dur="10s" fill="freeze" />
    </rect>
    <rect height="61.31" width="12.49" y="1010" x="641.7" style="fill:hsl(200,40%,20%)">
    <animate attributeName="fill" from="hsl(200,40%,20%)" to="orange" begin="move1.end + 1.6s" dur="6s" fill="freeze" />
    <animate attributeName="fill" from="orange" to="silver" begin="12s" dur="10s" fill="freeze" />
    </rect>
    <rect height="61.31" width="12.49" y="1010" x="570.4" style="fill:hsl(200,40%,20%)">
    <animate attributeName="fill" from="hsl(200,40%,20%)" to="orange" begin="move1.end + 2s" dur="3s" fill="freeze" />
    <animate attributeName="fill" from="orange" to="silver" begin="12s" dur="10s" fill="freeze" />
    </rect>
    <rect height="27.13" width="46.66" y="972" x="588.7" style="fill:hsl(200,40%,20%)">
    <animate attributeName="fill" from="hsl(200,40%,20%)" to="orange" begin="move1.end + 2.3s" dur="3s" fill="freeze" />
    <animate attributeName="fill" from="orange" to="silver" begin="12s" dur="10s" fill="freeze" />
    </rect>
    <path d="M 611.9,940.2 A 23.58,18.84 0 0 0 588.3,959 a 23.58,18.84 0 0 0 0.9,5 l 45.4,0 a 23.58,18.84 0 0 0 0.9,-5 a 23.58,18.84 0 0 0 -23.6,-18.8 z" style="fill:hsl(200,40%,20%)">
    <animate attributeName="fill" from="hsl(200,40%,20%)" to="orange" begin="move1.end + 2.6s" dur="3s" fill="freeze" />
    <animate attributeName="fill" from="orange" to="silver" begin="12s" dur="10s" fill="freeze" />
    </path>
    <path d="m 647.7,977 a 5.439,5.238 0 0 0 -5.1,3 l -0.4,0 l 0,20 l 11.1,0 l 0,-20 l -0.5,0 a 5.439,5.238 0 0 0 -5.1,-3 z" style="fill:hsl(200,40%,20%)">
    <animate attributeName="fill" from="hsl(200,40%,20%)" to="orange" begin="move1.end + 2.9s" dur="2s" fill="freeze" />
    <animate attributeName="fill" from="orange" to="silver" begin="12s" dur="10s" fill="freeze" />
    </path>
    <path d="m 576.2,977 a 5.439,5.238 0 0 0 -5.1,3 l -0.4,0 l 0,20 l 11.1,0 l 0,-20 l -0.5,0 a 5.439,5.238 0 0 0 -5.1,-3 z" style="fill:hsl(200,40%,20%)">
    <animate attributeName="fill" from="hsl(200,40%,20%)" to="orange" begin="move1.end + 3.2s" dur="3s" fill="freeze" />
    <animate attributeName="fill" from="orange" to="silver" begin="12s" dur="10s" fill="freeze" />
    </path>
    <path id="c1" style="fill:#000000" d="m 611.6,893.1 l -1.4,16.1 c -2.5,0.4 -4.5,1.8 -5.1,3.7 c 2,-0.3 4.2,-0.5 6.5,-0.5 c 2.3,0 4.5,0.2 6.5,0.5 c -0.5,-1.9 -2.5,-3.3 -5.1,-3.7 z m -0.4,19.9 c -2.2,0 -4.3,0.2 -6.2,0.5 l 2.7,5.1 c 0.2,0.2 0.4,0.3 0.7,0.4 l -10.5,22 c 4.1,-2.6 8.7,-3.9 13.7,-3.9 c 5,0 9.7,1.3 13.6,3.9 l -10.4,-22 c 0.3,-0.1 0.5,-0.2 0.7,-0.4 l 2.7,-5.1 c -2,-0.3 -4.3,-0.5 -6.6,-0.5 l -0.4,0 z m -23.8,23.8 l 3.7,5.2 c -0.8,2 -0.7,3 0.1,4 c 1.6,-2 3.7,-3 6,-5 c -1.2,-1 -2.7,-1 -4,0 z m 48.5,0 L 630,941 c -1.3,-1 -2.8,-1 -3.9,0 c 2.2,2 4.2,3 5.9,5 c 0.8,-1 0.8,-2 0.2,-4 z m -24.3,1 c -14.1,0 -25.5,11.2 -25.5,23.2 l 0,1 l 51,0 l 0,-1 c 0,-12 -11.4,-23.2 -25.5,-23.2 z m 0,3.2 c 4.4,0 8.6,1 12.1,3 l -6.7,10 c -1.5,-1 -3.4,-1 -5.4,-1 c -2,0 -3.9,0 -5.4,1 l -6.7,-10 c 3.5,-2 7.7,-3 12.1,-3 z m -13.8,4 l 6.8,11 c -1.2,1 -1.9,2 -2.2,4 l -13.9,0 c 0.2,-6 3.8,-12 9.3,-15 z m 27.7,0 c 5.5,3 9.1,9 9.2,15 l -13.9,0 c -0.2,-2 -1,-3 -2.2,-4 z m -45.3,0 l 5.4,5 c -0.2,1 0.3,2 1.3,3 c 1,-2 2.3,-5 4,-6 c -1.3,-1 -2.8,0 -3.8,0 z m 62.8,0 l -6.9,2 c -1,0 -2.4,-1 -3.8,0 c 1.7,1 3,4 4,6 c 1.1,-1 1.5,-2 1.3,-3 z m -56.4,9 c -1.3,0 -2.4,0 -3.1,1 l -7.2,1 l 6.6,2 c 0.2,1 0.9,2 2,3 c 0.2,-3 0.8,-5 1.7,-7 z m 50,0 c 0.9,2 1.5,4 1.6,7 c 1.2,-1 1.9,-2 2.1,-3 l 6.6,-2 l -7.2,-1 c -0.7,-1 -1.8,-1 -3.1,-1 z m -60.3,5 l -0.4,8 c -0.5,0 -1,1 -1.2,1 l 1.6,0 l 1.6,0 c -0.1,0 -0.7,-1 -1.2,-1 z m 71.2,0 l -0.3,8 c -0.6,0 -1.1,1 -1.2,1 l 1.5,0 l 1.6,0 c -0.1,0 -0.6,-1 -1.2,-1 z m -68.5,3 c 6.8,4 18.8,7 32.6,7 c 13.8,0 25.9,-3 32.6,-7 z m 7.1,4 l 0,36 l -21.5,0 l 0,5 l 21.5,0 l 0,413 l 51.7,0 l 0,-413 l 20.9,0 l 0,-5 l -20.9,0 l 0,-36 c -6.9,2 -15.9,3 -25.8,3 c -9.9,0 -19,-1 -25.9,-3 z m -9.8,2 c -0.6,0 -1.1,0 -1.6,1 l 0.7,1 l 0.2,0 l 0.1,0 l -3.9,7 c 1.2,-1 2.8,-1 4.5,-1 c 1.8,0 3.3,0 4.5,1 l -3.9,-7 l 0.3,0 l 0.7,-1 c -0.5,-1 -1,-1 -1.6,-1 z m 71.2,0 c -0.5,0 -1.1,0 -1.6,1 l 0.7,1 l 0.3,0 l -3.8,7 c 1.1,-1 2.7,-1 4.4,-1 c 1.8,0 3.3,0 4.5,1 l -3.9,-7 l 0.1,0 l 0.3,0 l 0.6,-1 c -0.5,-1 -1,-1 -1.6,-1 z m -52.5,6 l 3.8,0 l 0,7 l -8.9,0 l 0,-2 c 0,-3 2.3,-5 5.1,-5 z m 6.1,0 l 3.8,0 c 2.8,0 5.1,2 5.1,5 l 0,2 l -8.9,0 z m 18,0 l 3.8,0 l 0,7 l -8.9,0 l 0,-2 c 0,-3 2.3,-5 5.1,-5 z m 6.1,0 l 3.8,0 c 2.8,0 5.1,2 5.1,5 l 0,2 l -8.9,0 z m -48.9,2 c -3.4,0 -6.2,3 -6.2,6 l 0,6 l 0,1 l 0,6 l 0,6 l 12.4,0 l 0,-7 l 0,-5 l 0,-1 l 0,-6 c 0,-3 -2.8,-6 -6.2,-6 z m 71.2,0 c -3.4,0 -6.2,3 -6.2,6 l 0,6 l 0,1 l 0,6 l 0,6 l 12.5,0 l 0,-7 l 0,-5 l 0,-1 l 0,-6 c 0,-3 -2.8,-6 -6.3,-6 z m -71.3,2 l 0.1,0 l 2.1,0 l -1.3,2 l -0.8,0 l -0.8,0 l -1.3,-2 l 2,0 z m 71.2,0 l 0.1,0 l 2.2,0 l -1.4,2 l -0.8,0 l -0.8,0 l -1.3,-2 l 2,0 z m -74.2,1 l 1.3,2 c -0.2,0 -0.5,1 -0.6,1 l -2.3,0 c 0.1,-1 0.6,-2 1.6,-3 z m 71.2,0 l 1.4,2 c -0.4,0 -0.6,1 -0.7,1 l -2.3,0 c 0,-1 0.7,-2 1.6,-3 z m -65,0 c 1,1 1.6,2 1.6,3 l -2.3,0 c -0.1,0 -0.3,-1 -0.6,-1 z m 71.2,0 c 1,1 1.6,2 1.6,3 l -2.3,0 c -0.1,0 -0.3,-1 -0.6,-1 z m -60.7,4 l 8.9,0 l 0,15 l -8.9,0 z m 11.2,0 l 8.9,0 l 0,15 l -8.9,0 z m 12.9,0 l 8.9,0 l 0,15 l -8.9,0 z m 11.2,0 l 8.9,0 l 0,15 l -8.9,0 z m -53.6,0 l 4.1,0 l 0,5 l -4.1,0 z m 5.3,0 l 4.1,0 l 0,5 l -4.1,0 z m 65.9,0 l 4.2,0 l 0,5 l -4.2,0 z m 5.3,0 l 4.1,0 l 0,5 l -4.1,0 z m -76.5,6 l 4.1,0 l 0,5 l -4.1,0 z m 5.3,0 l 4.1,0 l 0,5 l -4.1,0 z m 65.9,0 l 4.2,0 l 0,5 l -4.2,0 z m 5.3,0 l 4.1,0 l 0,5 l -4.1,0 z m -76.5,6 l 4.1,0 l 0,5 l -4.1,0 z m 5.3,0 l 4.1,0 l 0,5 l -4.1,0 z m 65.9,0 l 4.2,0 l 0,5 l -4.2,0 z m 5.3,0 l 4.1,0 l 0,5 l -4.1,0 z m -53.1,7 l 3.8,0 l 0,7 l -8.9,0 l 0,-2 c 0,-2 2.3,-5 5.1,-5 z m 6.1,0 l 3.8,0 c 2.8,0 5.1,3 5.1,5 l 0,2 l -8.9,0 z m 18,0 l 3.8,0 l 0,7 l -8.9,0 l 0,-2 c 0,-2 2.3,-5 5.1,-5 z m 6.1,0 l 3.8,0 c 2.8,0 5.1,3 5.1,5 l 0,2 l -8.9,0 z m -57.4,6 l 0,412 l 17,0 l 0,-412 z m 71.2,0 l 0,412 l 17.1,0 l 0,-412 z m -49.1,4 l 8.9,0 l 0,15 l -8.9,0 z m 11.2,0 l 8.9,0 l 0,15 l -8.9,0 z m 12.9,0 l 8.9,0 l 0,15 l -8.9,0 z m 11.2,0 l 8.9,0 l 0,15 l -8.9,0 z m -48.9,0 l 2.2,0 l -1.4,2 l -0.8,0 l -0.8,0 l -1.4,-2 l 2.2,0 z m 71.2,0 l 2.2,0 l -1.3,2 l -0.9,0 l -0.8,0 l -1.4,-2 l 2.2,0 z m -74.4,1 l 1.4,2 c -0.3,0 -0.5,1 -0.6,1 l -2.4,0 c 0.1,-1 0.6,-2 1.6,-3 z m 71.3,0 l 1.3,2 c -0.3,0 -0.5,1 -0.6,1 l -2.4,0 c 0,-1 0.7,-2 1.7,-3 z m -64.9,0 c 1,1 1.6,2 1.6,3 l -2.4,0 c 0,0 -0.3,-1 -0.6,-1 z m 71.2,0 c 1,1 1.6,2 1.6,3 l -2.3,0 c -0.1,0 -0.3,-1 -0.7,-1 z m -79.2,4 l 4.2,0 l 0,5 l -4.2,0 z m 5.4,0 l 4.2,0 l 0,5 l -4.2,0 z m 65.8,0 l 4.2,0 l 0,5 l -4.2,0 z m 5.4,0 l 4.2,0 l 0,5 l -4.2,0 z m -76.6,6 l 4.2,0 l 0,5 l -4.2,0 z m 5.4,0 l 4.2,0 l 0,5 l -4.2,0 z m 65.8,0 l 4.2,0 l 0,5 l -4.2,0 z m 5.4,0 l 4.2,0 l 0,5 l -4.2,0 z m -53.1,8 l 3.8,0 l 0,7 l -8.9,0 l 0,-2 c 0,-3 2.3,-5 5.1,-5 z m 6.1,0 l 3.8,0 c 2.8,0 5.1,2 5.1,5 l 0,2 l -8.9,0 z m 18,0 l 3.8,0 l 0,7 l -8.9,0 l 0,-2 c 0,-3 2.3,-5 5.1,-5 z m 6.1,0 l 3.8,0 c 2.8,0 5.1,2 5.1,5 l 0,2 l -8.9,0 z m -48.9,1 c 0.8,0 1.6,1 2.2,1 l -1.4,2 l -0.8,0 l -0.8,0 l -1.4,-2 c 0.6,0 1.4,-1 2.2,-1 z m 71.2,0 c 0.8,0 1.6,1 2.2,1 l -1.3,2 l -0.9,0 l -0.8,0 l -1.4,-2 c 0.7,0 1.4,-1 2.2,-1 z m -74.4,2 l 1.4,2 c -0.3,0 -0.5,0 -0.6,1 l -2.4,0 c 0,-1 0.6,-3 1.6,-3 z m 6.4,0 c 1,0 1.6,2 1.6,3 l -2.4,0 c 0,-1 -0.3,-1 -0.6,-1 z m 64.9,0 l 1.3,2 c -0.3,0 -0.5,0 -0.6,1 l -2.4,0 c 0,-1 0.7,-3 1.7,-3 z m 6.3,0 c 1,0 1.6,2 1.6,3 l -2.3,0 c -0.1,-1 -0.3,-1 -0.7,-1 z m -79.2,4 l 4.2,0 l 0,5 l -4.2,0 z m 5.4,0 l 4.2,0 l 0,5 l -4.2,0 z m 65.8,0 l 4.2,0 l 0,5 l -4.2,0 z m 5.4,0 l 4.2,0 l 0,5 l -4.2,0 z m -58.2,2 l 8.9,0 l 0,15 l -8.9,0 z m 11.2,0 l 8.9,0 l 0,15 l -8.9,0 z m 12.9,0 l 8.9,0 l 0,15 l -8.9,0 z m 11.2,0 l 8.9,0 l 0,15 l -8.9,0 z m -53.7,4 l 4.2,0 l 0,5 l -4.2,0 z m 5.4,0 l 4.2,0 l 0,5 l -4.2,0 z m 65.8,0 l 4.2,0 l 0,5 l -4.2,0 z m 5.4,0 l 4.2,0 l 0,5 l -4.2,0 z m -71.8,9 c 0.8,0 1.6,0 2.2,1 l -1.4,2 l -0.8,0 l -0.8,0 l -1.4,-2 c 0.6,-1 1.4,-1 2.2,-1 z m 71.2,0 c 0.8,0 1.6,0 2.2,1 l -1.3,2 l -0.9,0 l -0.8,0 l -1.4,-2 c 0.7,-1 1.4,-1 2.2,-1 z m -74.4,1 l 1.4,2 c -0.3,1 -0.5,1 -0.6,2 l -2.4,0 c 0.1,-2 0.6,-3 1.6,-4 z m 71.3,0 l 1.3,2 c -0.3,1 -0.5,1 -0.6,2 l -2.4,0 c 0,-2 0.7,-3 1.7,-4 z m -64.9,0 c 1,1 1.6,2 1.6,4 l -2.4,0 c 0,-1 -0.3,-1 -0.6,-2 z m 71.2,0 c 1,1 1.6,2 1.6,4 l -2.3,0 c -0.1,-1 -0.3,-1 -0.7,-2 z m -79.2,5 l 4.2,0 l 0,5 l -4.2,0 z m 5.4,0 l 4.2,0 l 0,5 l -4.2,0 z m 65.8,0 l 4.2,0 l 0,5 l -4.2,0 z m 5.4,0 l 4.2,0 l 0,5 l -4.2,0 z m -53.1,0 l 3.8,0 l 0,7 l -8.9,0 l 0,-2 c 0,-3 2.3,-5 5.1,-5 z m 6.1,0 l 3.8,0 c 2.8,0 5.1,2 5.1,5 l 0,2 l -8.9,0 z m 18,0 l 3.8,0 l 0,7 l -8.9,0 l 0,-2 c 0,-3 2.3,-5 5.1,-5 z m 6.1,0 l 3.8,0 c 2.8,0 5.1,2 5.1,5 l 0,2 l -8.9,0 z m -53.7,6 l 4.2,0 l 0,4 l -4.2,0 z m 5.4,0 l 4.2,0 l 0,4 l -4.2,0 z m 65.8,0 l 4.2,0 l 0,4 l -4.2,0 z m 5.4,0 l 4.2,0 l 0,4 l -4.2,0 z m -58.2,3 l 8.9,0 l 0,16 l -8.9,0 z m 11.2,0 l 8.9,0 l 0,16 l -8.9,0 z m 12.9,0 l 8.9,0 l 0,16 l -8.9,0 z m 11.2,0 l 8.9,0 l 0,16 l -8.9,0 z">
    <animate attributeName="fill" from="#000" to="hsl(210,30%,60%)" begin="16s" dur="3s" fill="freeze" />
    </path>
  	<animateTransform 	id="move1"
  						attributeName="transform"
                          attributeType="XML"
                          type="translate"
                          begin="4s"
                          from="0 0"
                          to="0 -698"
                          dur="1s" 
                          fill="freeze"/>
  </g>
  <g id="g2" class="t4">
    <rect height="12.58" width="28" y="1049" x="282.7" style="fill:hsl(200,40%,20%)">
    	<animate attributeName="fill" from="hsl(200,40%,20%)" to="orange" begin="move2.begin + 0.5s" dur="3s" fill="freeze" />
    	<animate attributeName="fill" from="orange" to="silver" begin="12s" dur="10s" fill="freeze" />
    </rect>
    <rect height="42.24" width="34.18" y="1007" x="276.2" style="fill:hsl(200,40%,20%)">
    <animate attributeName="fill" from="hsl(200,40%,20%)" to="orange" begin="move2.begin + 0.5s" dur="3s" fill="freeze" />
    <animate attributeName="fill" from="orange" to="silver" begin="12s" dur="10s" fill="freeze" />
    </rect>
    <rect height="64.31" width="34.18" y="942" x="276.2" style="fill:hsl(200,40%,20%)">
    <animate attributeName="fill" from="hsl(200,40%,20%)" to="orange" begin="move2.begin + 1s" dur="3s" fill="freeze" />
    <animate attributeName="fill" from="orange" to="silver" begin="12s" dur="10s" fill="freeze" />
    </rect>
    <rect height="17.56" width="34.18" y="920.7" x="276.2" style="fill:hsl(200,40%,20%)">
    <animate attributeName="fill" from="hsl(200,40%,20%)" to="orange" begin="move2.begin + 4s" dur="3s" fill="freeze" />
    <animate attributeName="fill" from="orange" to="silver" begin="12s" dur="10s" fill="freeze" />
    </rect>
    <path d="m 279.5,893.4 c 0.6,0 1,0.7 1,1.5 l 0,15 l 8.9,0 l 0,8.5 l -12.2,0 l 0,-8.5 l 1.4,0 l 0,-15 c 0,-0.8 0.4,-1.5 0.9,-1.5 z m 32.1,25.8 l 0,20.5 l -36.2,0 l 0,-20.5 z m -4.1,2.5 l -28,0 c -1.1,0 -2.1,0.9 -2.1,1.9 l 0,1.3 l 0,1.8 l 0,1.5 l 32.1,0 l 0,-1.5 l 0,-1.8 l 0,-1.3 c 0,-1 -0.8,-1.9 -2,-1.9 z m 2,8.4 l -15,0 l 0,7.3 l 15,0 z m -17,0 l -15.1,0 l 0,7.3 l 15.1,0 z m 19.1,9.9 l 0,336 l -36.2,0 l 0,-336 z m -2.1,3 l -9.3,0 l 0,9 l 9.3,0 z m -11.3,0 l -9.4,0 l 0,9 l 9.4,0 z m 0,11 l -9.4,0 l 0,9 l 9.4,0 z m -11.4,0 l -9.4,0 l 0,9 l 9.4,0 z m 22.7,10 l -9.3,0 l 0,10 l 9.3,0 z m -11.3,0 l -9.4,0 l 0,10 l 9.4,0 z m -11.4,0 l -9.4,0 l 0,10 l 9.4,0 z m 11.4,11 l -9.4,0 l 0,9 l 9.4,0 z m -11.4,0 l -9.4,0 l 0,9 l 9.4,0 z m 22.7,11 l -9.3,0 l 0,9 l 9.3,0 z m -22.7,0 l -9.4,0 l 0,9 l 9.4,0 z m 22.7,11 l -9.3,0 l 0,9 l 9.3,0 z m -11.3,0 l -9.4,0 l 0,9 l 9.4,0 z m -11.4,0 l -9.4,0 l 0,9 l 9.4,0 z m 22.7,10 l -9.3,0 l 0,10 l 9.3,0 z m 0,11 l -9.3,0 l 0,9 l 9.3,0 z m -11.3,0 l -9.4,0 l 0,9 l 9.4,0 z m -11.4,0 l -9.4,0 l 0,9 l 9.4,0 z m 22.7,11 l -9.3,0 l 0,9 l 9.3,0 z m -11.3,0 l -9.4,0 l 0,9 l 9.4,0 z m 0,11 l -9.4,0 l 0,9 l 9.4,0 z m -11.4,0 l -9.4,0 l 0,9 l 9.4,0 z m 22.7,10 l -9.3,0 l 0,10 l 9.3,0 z m -11.3,0 l -9.4,0 l 0,10 l 9.4,0 z">
    <animate attributeName="fill" from="#000" to="hsl(210,30%,50%)" begin="16s" dur="3s" fill="freeze" />
    </path>
  	<animateTransform 	id="move2" 
  						attributeName="transform"
                          attributeType="XML"
                          type="translate"
                          from="0 0"
                          to="0 -554"
                          dur="2s"
                          begin="move1.begin + 0.5s" 
                          fill="freeze"/>
  </g>
  <g id="g3" class="t2">
    <rect height="25.8" width="10.38" y="1116" x="178.8" style="fill:hsl(200,40%,20%)">
    	<animate attributeName="fill" from="hsl(200,40%,20%)" to="orange" begin="move3.begin + 4s" dur="3s" fill="freeze" />
    	<animate attributeName="fill" from="orange" to="silver" begin="12s" dur="10s" fill="freeze" />
    </rect>
    <rect height="25.8" width="39.9" y="1116" x="138.7" style="fill:hsl(200,40%,20%)">
    <animate attributeName="fill" from="hsl(200,40%,20%)" to="orange" begin="move3.begin + 1s" dur="3s" fill="freeze" />
    <animate attributeName="fill" from="orange" to="silver" begin="12s" dur="10s" fill="freeze" />
    </rect>
    <rect height="11.95" width="20.38" y="1103" x="148.7" style="fill:hsl(200,40%,20%)">
    <animate attributeName="fill" from="hsl(200,40%,20%)" to="orange" begin="move3.begin + 4s" dur="6s" fill="freeze" />
    <animate attributeName="fill" from="orange" to="silver" begin="12s" dur="10s" fill="freeze" />
    </rect>
    <rect height="11.95" width="9.6" y="1103" x="138.7" style="fill:hsl(200,40%,20%)">
    <animate attributeName="fill" from="hsl(200,40%,20%)" to="orange" begin="move3.begin + 1s" dur="2s" fill="freeze" />
    <animate attributeName="fill" from="orange" to="silver" begin="12s" dur="10s" fill="freeze" />
    </rect>
    <rect height="25.34" width="21.03" y="1076" x="168.7" style="fill:hsl(200,40%,20%)">
    <animate attributeName="fill" from="hsl(200,40%,20%)" to="orange" begin="move3.begin + 1s" dur="8s" fill="freeze" />
    <animate attributeName="fill" from="orange" to="silver" begin="12s" dur="10s" fill="freeze" />
    </rect>
    <rect height="25.34" width="30.24" y="1076" x="138.4" style="fill:hsl(200,40%,20%)">
    <animate attributeName="fill" from="hsl(200,40%,20%)" to="orange" begin="move3.begin + 4s" dur="3s" fill="freeze" />
    <animate attributeName="fill" from="orange" to="silver" begin="12s" dur="10s" fill="freeze" />
    </rect>
    <rect height="12.47" width="29.65" y="1062" x="148.6" style="fill:hsl(200,40%,20%)">
    <animate attributeName="fill" from="hsl(200,40%,20%)" to="orange" begin="move3.begin + 1s" dur="1s" fill="freeze" />
    <animate attributeName="fill" from="orange" to="silver" begin="12s" dur="10s" fill="freeze" />
    </rect>
    <rect height="40.36" width="10.19" y="1035" x="179.1" style="fill:hsl(200,40%,20%)">
    <animate attributeName="fill" from="hsl(200,40%,20%)" to="orange" begin="move3.begin + 8s" dur="6s" fill="freeze" />
    <animate attributeName="fill" from="orange" to="silver" begin="12s" dur="10s" fill="freeze" />
    </rect>
    <rect height="25.67" width="19.59" y="1035" x="158.9" style="fill:hsl(200,40%,20%)">
    <animate attributeName="fill" from="hsl(200,40%,20%)" to="orange" begin="move3.begin + 7s" dur="1s" fill="freeze" />
    <animate attributeName="fill" from="orange" to="silver" begin="12s" dur="10s" fill="freeze" />
    </rect>
    <rect height="25.67" width="19.59" y="1035" x="138.7" style="fill:hsl(200,40%,20%)">
    <animate attributeName="fill" from="hsl(200,40%,20%)" to="orange" begin="move3.begin + 2s" dur="10s" fill="freeze" />
    <animate attributeName="fill" from="orange" to="silver" begin="12s" dur="10s" fill="freeze" />
    </rect>
    <rect height="11.89" width="9.533" y="1023" x="179.1" style="fill:hsl(200,40%,20%)">
    <animate attributeName="fill" from="hsl(200,40%,20%)" to="orange" begin="move3.begin + 1s" dur="2s" fill="freeze" />
    <animate attributeName="fill" from="orange" to="silver" begin="12s" dur="10s" fill="freeze" />
    </rect>
    <rect height="11.89" width="19.59" y="1023" x="159.1" style="fill:hsl(200,40%,20%)">
    <animate attributeName="fill" from="hsl(200,40%,20%)" to="orange" begin="move3.begin + 2s" dur="3s" fill="freeze" />
    <animate attributeName="fill" from="orange" to="silver" begin="12s" dur="10s" fill="freeze" />
    </rect>
    <rect height="11.89" width="19.59" y="1023" x="138.7" style="fill:hsl(200,40%,20%)">
    <animate attributeName="fill" from="hsl(200,40%,20%)" to="orange" begin="move3.begin + 8s" dur="8s" fill="freeze" />
    <animate attributeName="fill" from="orange" to="silver" begin="12s" dur="10s" fill="freeze" />
    </rect>
    <rect height="23.7" width="34.28" y="996" x="154.2" style="fill:hsl(200,40%,20%)">
    <animate attributeName="fill" from="hsl(200,40%,20%)" to="orange" begin="move3.begin + 6s" dur="1s" fill="freeze" />
    <animate attributeName="fill" from="orange" to="silver" begin="12s" dur="10s" fill="freeze" />
    </rect>
    <rect height="23.7" width="14.69" y="996" x="138.5" style="fill:hsl(200,40%,20%)">
    <animate attributeName="fill" from="hsl(200,40%,20%)" to="orange" begin="move3.begin + 2s" dur="3s" fill="freeze" />
    <animate attributeName="fill" from="orange" to="silver" begin="12s" dur="10s" fill="freeze" />
    </rect>
    <rect height="10.45" width="17.89" y="981" x="169.3" style="fill:hsl(200,40%,20%)">
    <animate attributeName="fill" from="hsl(200,40%,20%)" to="orange" begin="move3.begin + 4s" dur="3s" fill="freeze" />
    <animate attributeName="fill" from="orange" to="silver" begin="12s" dur="10s" fill="freeze" />
    </rect>
    <rect height="10.45" width="28.8" y="981" x="139.4" style="fill:hsl(200,40%,20%)">
    <animate attributeName="fill" from="hsl(200,40%,20%)" to="orange" begin="move3.begin + 3s" dur="7s" fill="freeze" />
    <animate attributeName="fill" from="orange" to="silver" begin="12s" dur="10s" fill="freeze" />
    </rect>
    <rect rx="4" height="25.04" width="18.98" y="953" x="166" style="fill:hsl(200,40%,20%)">
    <animate attributeName="fill" from="hsl(200,40%,20%)" to="orange" begin="move3.begin + 6s" dur="1s" fill="freeze" />
    <animate attributeName="fill" from="orange" to="silver" begin="12s" dur="10s" fill="freeze" />
    </rect>
    <rect rx="4" height="25.04" width="18.98" y="953" x="142" style="fill:hsl(200,40%,20%)">
    <animate attributeName="fill" from="hsl(200,40%,20%)" to="orange" begin="move3.begin + 3s" dur="0.5s" fill="freeze" />
    <animate attributeName="fill" from="orange" to="silver" begin="12s" dur="10s" fill="freeze" />
    </rect>
    <path d="m 151.5,893.3 l -0.6,32.7 c -1.1,0.3 -2,1.1 -2.2,2.3 c 0.9,-0.2 1.8,-0.3 2.9,-0.3 c 1,0 1.9,0.1 2.8,0.3 c -0.2,-1.2 -1.1,-2 -2.2,-2.3 z m 24,0 l -0.7,32.7 c -1.1,0.3 -2,1.1 -2.2,2.3 c 0.9,-0.2 1.8,-0.3 2.9,-0.3 c 1,0 1.9,0.1 2.8,0.3 c -0.2,-1.2 -1.1,-2 -2.2,-2.3 z m -24,35.1 c -1,0 -1.9,0.2 -2.8,0.4 l 1.2,2.9 c 0.1,0.2 0.2,0.2 0.5,0.3 l 0.1,0 l -7.1,20 c 2.1,-2 5,-3 8.2,-3 c 3.1,0 6,1 8.1,3 l -7.1,-20 l 0.1,0 c 0.3,-0.1 0.4,-0.1 0.5,-0.3 l 1.2,-2.9 c -0.9,-0.2 -1.8,-0.4 -2.9,-0.4 z m 24,0 c -1.1,0 -2,0.2 -2.9,0.4 l 1.2,2.9 c 0.1,0.2 0.2,0.2 0.5,0.3 l 0.1,0 l -7.1,20 c 2.1,-2 5,-3 8.2,-3 c 3.1,0 6,1 8.1,3 l -7.1,-20 l 0.1,0 c 0.3,-0.1 0.5,-0.1 0.6,-0.3 l 1.1,-2.9 c -0.8,-0.2 -1.8,-0.4 -2.8,-0.4 z M 151.6,950 c -6.3,0 -11.5,5 -11.5,11 l 0,18 l 22.9,0 l 0,-18 c 0,-6 -5.1,-11 -11.4,-11 z m 23.9,0 c -6.3,0 -11.5,5 -11.5,11 l 0,18 l 22.9,0 l 0,-18 c 0,-6 -5.1,-11 -11.4,-11 z m -24,3 c 1.5,0 2.9,0 4,1 l -2.4,4 c -0.5,-1 -1,-1 -1.6,-1 c -0.5,0 -1,0 -1.5,1 l -2.4,-4 c 1.1,-1 2.5,-1 4,-1 z m 24,0 c 1.4,0 2.7,0 3.9,1 l -2.4,4 c -0.5,-1 -1,-1 -1.5,-1 c -0.6,0 -1.1,0 -1.6,1 l -2.4,-4 c 1.1,-1 2.5,-1 4,-1 z m -29.6,2 l 2.4,4 c -0.5,0 -0.9,1 -1.1,2 l -4.2,0 c 0,-2 1.1,-5 2.9,-6 z m 23.9,0 l 2.4,4 c -0.5,0 -0.9,1 -1.1,2 l -4.2,0 c 0,-2 1.1,-5 2.9,-6 z m -12.6,0 c 1.8,1 2.9,4 2.9,6 l -4.2,0 c -0.2,-1 -0.6,-2 -1.1,-2 z m 23.9,0 c 1.8,1 2.9,4 3,6 l -4.3,0 c -0.1,-1 -0.5,-2 -1.1,-2 z m -38.2,8 l 7.6,0 l 0,13 l -7.6,0 z m 9.7,0 l 7.5,0 l 0,13 l -7.5,0 z m 14.2,0 l 7.6,0 l 0,13 l -7.6,0 z m 9.7,0 l 7.6,0 l 0,13 l -7.6,0 z m -39,16 l 0,15 l 51.9,0 l 0,-15 z m 3,3 l 6.8,0 l 0,9 l -6.8,0 z m 9.8,0 l 6.8,0 l 0,9 l -6.8,0 z m 9.8,0 l 6.8,0 l 0,9 l -6.8,0 z m 9.8,0 l 6.8,0 l 0,9 l -6.8,0 z m 9.8,0 l 6.9,0 l 0,9 l -6.9,0 z m -43.8,12 l 0,364 l 55.2,0 l 0,-364 z m 3.2,3 l 13.4,0 l 0,5 l -13.4,0 z m 15.4,0 l 18,0 l 0,5 l -18,0 z m 20,0 l 13.4,0 l 0,5 l -13.4,0 z m -35.4,7 l 13.4,0 l 0,15 l -13.4,0 z m 15.4,0 l 18,0 l 0,15 l -18,0 z m 20,0 l 13.4,0 l 0,15 l -13.4,0 z m -35.4,19 l 8.3,0 l 0,11 l -8.3,0 z m 10.1,0 l 8.3,0 l 0,11 l -8.3,0 z m 10.1,0 l 8.4,0 l 0,11 l -8.4,0 z m 10.2,0 l 8.3,0 l 0,11 l -8.3,0 z m 10.1,0 l 8.3,0 l 0,11 l -8.3,0 z m -40.5,13 l 8.3,0 l 0,11 l -8.3,0 z m 20.2,0 l 8.4,0 l 0,11 l -8.4,0 z m 10.2,0 l 8.3,0 l 0,11 l -8.3,0 z m 10.1,0 l 8.3,0 l 0,11 l -8.3,0 z m -40.5,14 l 8.3,0 l 0,10 l -8.3,0 z m 10.1,0 l 8.3,0 l 0,10 l -8.3,0 z m 30.4,0 l 8.3,0 l 0,10 l -8.3,0 z m -30.4,13 l 8.3,0 l 0,11 l -8.3,0 z m 10.1,0 l 8.4,0 l 0,11 l -8.4,0 z m 10.2,0 l 8.3,0 l 0,11 l -8.3,0 z m 10.1,0 l 8.3,0 l 0,11 l -8.3,0 z m -40.5,14 l 8.3,0 l 0,10 l -8.3,0 z m 10.1,0 l 8.3,0 l 0,10 l -8.3,0 z m 10.1,0 l 8.4,0 l 0,10 l -8.4,0 z m 20.3,0 l 8.3,0 l 0,10 l -8.3,0 z m -40.5,13 l 8.3,0 l 0,11 l -8.3,0 z m 20.2,0 l 8.4,0 l 0,11 l -8.4,0 z m 10.2,0 l 8.3,0 l 0,11 l -8.3,0 z m 10.1,0 l 8.3,0 l 0,11 l -8.3,0 z m -40.5,13 l 8.3,0 l 0,11 l -8.3,0 z m 10.1,0 l 8.3,0 l 0,11 l -8.3,0 z m 10.1,0 l 8.4,0 l 0,11 l -8.4,0 z m -20.2,14 l 8.3,0 l 0,10 l -8.3,0 z m 10.1,0 l 8.3,0 l 0,10 l -8.3,0 z m 10.1,0 l 8.4,0 l 0,10 l -8.4,0 z m 10.2,0 l 8.3,0 l 0,10 l -8.3,0 z m 10.1,0 l 8.3,0 l 0,10 l -8.3,0 z m -40.5,13 l 8.3,0 l 0,11 l -8.3,0 z m 10.1,0 l 8.3,0 l 0,11 l -8.3,0 z m 20.3,0 l 8.3,0 l 0,11 l -8.3,0 z m 10.1,0 l 8.3,0 l 0,11 l -8.3,0 z">
    <animate attributeName="fill" from="#000" to="hsl(180,30%,50%)" begin="16s" dur="3s" fill="freeze" />
    
    </path>
  	<animateTransform 	id="move3" 
  						attributeName="transform"
                          attributeType="XML"
                          type="translate"
                          from="0 0"
                          to="0 -638"
                          dur="1s"
                          begin="move2.begin + 1s"
                          fill="freeze"/>
  </g>
  <g id="g4" class="t16">
    <rect height="31.3" width="28.8" y="1057" x="1028" style="fill:hsl(200,40%,20%)">
    <animate attributeName="fill" from="hsl(200,40%,20%)" to="orange" begin="move4.begin + 4s" dur="3s" fill="freeze" />
    <animate attributeName="fill" from="orange" to="gainsboro" begin="12s" dur="10s" fill="freeze" />
    </rect>
    <rect height="19.96" width="28.56" y="1036" x="1028" style="fill:hsl(200,40%,20%)">
    <animate attributeName="fill" from="hsl(200,40%,20%)" to="orange" begin="move4.begin + 5s" dur="1s" fill="freeze" />
    <animate attributeName="fill" from="orange" to="gainsboro" begin="12s" dur="10s" fill="freeze" />
    </rect>
    <rect height="30.44" width="20.27" y="998" x="1038" style="fill:hsl(200,40%,20%)">
    <animate attributeName="fill" from="hsl(200,40%,20%)" to="orange" begin="move4.begin + 4s" dur="7s" fill="freeze" />
    <animate attributeName="fill" from="orange" to="gainsboro" begin="12s" dur="10s" fill="freeze" />
    </rect>
    <rect height="30.44" width="9.938" y="998" x="1028" style="fill:hsl(200,40%,20%)">
    <animate attributeName="fill" from="hsl(200,40%,20%)" to="orange" begin="move4.begin + 4s" dur="6s" fill="freeze" />
    <animate attributeName="fill" from="orange" to="gainsboro" begin="12s" dur="10s" fill="freeze" />
    </rect>
    <rect height="36.21" width="26.65" y="954" x="1029" style="fill:hsl(200,40%,20%)">
    <animate attributeName="fill" from="hsl(200,40%,20%)" to="orange" begin="move4.begin + 4s" dur="5s" fill="freeze" />
    <animate attributeName="fill" from="orange" to="gainsboro" begin="12s" dur="10s" fill="freeze" />
    </rect>
    <path d="m 1043,893.5 l -2,19.7 c -2,0.5 -4,2.3 -5,4.6 c 2,-0.4 4,-0.6 7,-0.6 c 2,0 4,0.2 6,0.6 c 0,-2.3 -2,-4.1 -5,-4.6 z m 0,24.4 c -3,0 -5,0.2 -7,0.6 l 3,6.3 c 0,0.2 0,0.3 1,0.4 l -12,28.8 c 3,-3 8,-5 14,-5 l 1,0 c 5,0 11,1 14,5 l -11,-28.8 c 0,-0.1 1,-0.2 1,-0.4 l 2,-6.3 c -2,-0.4 -4,-0.6 -6,-0.6 z m -1,32.1 c -8,0 -14,3 -16,9 l 0,34 l 34,0 l 0,-34 c -2,-6 -10,-9 -17,-9 l -1,0 z m 2,5 c 5,0 10,2 11,7 l 0,3 l -11,0 z m -2,0 l 0,10 l -11,0 l 0,-3 c 1,-5 6,-7 11,-7 z m -11,12 l 11,0 l 0,19 l -11,0 z m 13,0 l 11,0 l 0,19 l -11,0 z m -19,27 l 0,38 l 36,0 l 0,-38 z m 4,5 l 8,0 l 0,23 c 0,3 -2,5 -4,5 c -2,0 -4,-2 -4,-5 z m 10,0 l 8,0 l 0,23 c 0,3 -2,5 -4,5 c -2,0 -4,-2 -4,-5 z m 10,0 l 8,0 l 0,23 c 0,3 -2,5 -4,5 c -2,0 -4,-2 -4,-5 z m -23,34 l 0,290 l 34,0 l 0,-290 z m 3,4 l 8,0 l 0,8 l -8,0 z m 10,0 l 8,0 l 0,8 l -8,0 z m 9,0 l 8,0 l 0,8 l -8,0 z m -19,11 l 8,0 l 0,7 l -8,0 z m 10,0 l 8,0 l 0,7 l -8,0 z m 9,0 l 8,0 l 0,7 l -8,0 z m -19,10 l 8,0 l 0,8 l -8,0 z m 10,0 l 8,0 l 0,8 l -8,0 z m 9,0 l 8,0 l 0,8 l -8,0 z m -19,10 l 8,0 l 0,8 l -8,0 z m 10,0 l 8,0 l 0,8 l -8,0 z m 9,0 l 8,0 l 0,8 l -8,0 z m -19,10 l 8,0 l 0,8 l -8,0 z m 10,0 l 8,0 l 0,8 l -8,0 z m 9,0 l 8,0 l 0,8 l -8,0 z">
    <animate attributeName="fill" from="#000" to="hsl(250,30%,80%)" begin="16s" dur="3s" fill="freeze" />
    </path>
  	<animateTransform 	id="move4" 
  						attributeName="transform"
                          attributeType="XML"
                          type="translate"
                          from="0 0"
                          to="0 -600"
                          dur="0.5s"
                          begin="move3.begin + 0.2s"
                          fill="freeze"/>
  </g>
  <g id="g5" class="t17">
    <rect height="33.01" width="29.45" y="1042" x="1103" style="fill:hsl(200,40%,20%)">
    <animate attributeName="fill" from="hsl(200,40%,20%)" to="orange" begin="move5.begin + 4s" dur="3s" fill="freeze" />
    <animate attributeName="fill" from="orange" to="silver" begin="12s" dur="10s" fill="freeze" />
    </rect>
    <rect height="43.49" width="29.35" y="999" x="1103" style="fill:hsl(200,40%,20%)">
    <animate attributeName="fill" from="hsl(200,40%,20%)" to="orange" begin="move5.begin + 6s" dur="3s" fill="freeze" />
    <animate attributeName="fill" from="orange" to="silver" begin="12s" dur="10s" fill="freeze" />
    </rect>
    <path d="m 1115,952 l 18,15 l 0,28 l -18,0 z" style="fill:hsl(200,40%,20%)">
    <animate attributeName="fill" from="hsl(200,40%,20%)" to="orange" begin="move5.begin + 7s" dur="1s" fill="freeze" />
    <animate attributeName="fill" from="orange" to="silver" begin="12s" dur="10s" fill="freeze" />
    </path>
    <path d="m 1121,892.8 l -1,32.2 c -1,0.2 -2,1.2 -2,2.4 l 0,20.6 l 5,6 l 0,-26.6 c 0,-1.2 -1,-2.2 -2,-2.4 z m -7,52.2 l 0,49 l -12,0 l 0,298 l 32,0 l 0,-298 l 0,-28 z m 1,8 l 5,4 l 0,16 l -5,0 z m 5,5 l 7,6 l 0,9 l -7,0 z m 8,6 l 4,4 l 0,5 l -4,0 z m -13,11 l 5,0 l 0,19 l -5,0 z m 5,0 l 7,0 l 0,19 l -7,0 z m 8,0 l 4,0 l 0,19 l -4,0 z m -24,25 l 9,0 l 0,10 l -9,0 z m 10,0 l 9,0 l 0,10 l -9,0 z m 10,0 l 8,0 l 0,10 l -8,0 z m -10,11 l 9,0 l 0,9 l -9,0 z m -10,11 l 9,0 l 0,9 l -9,0 z m 10,0 l 9,0 l 0,9 l -9,0 z m 10,0 l 8,0 l 0,9 l -8,0 z m 0,10 l 8,0 l 0,10 l -8,0 z m -20,11 l 9,0 l 0,9 l -9,0 z m 10,0 l 9,0 l 0,9 l -9,0 z m 10,0 l 8,0 l 0,9 l -8,0 z m -20,11 l 9,0 l 0,9 l -9,0 z m 10,0 l 9,0 l 0,9 l -9,0 z m 0,10 l 9,0 l 0,10 l -9,0 z m 10,0 l 8,0 l 0,10 l -8,0 z">
    <animate attributeName="fill" from="#000" to="hsl(300,30%,70%)" begin="16s" dur="3s" fill="freeze" />
    </path>
  	<animateTransform 	id="move5" 
  						attributeName="transform"
                          attributeType="XML"
                          type="translate"
                          from="0 0"
                          to="0 -570"
                          dur="0.3s"
                          begin="move4.begin + 0.2s"
                          fill="freeze"/>
  </g>
  <g id="g6" class="t9">
    <rect height="49.59" width="33.26" y="995" x="660.5" style="fill:hsl(200,40%,20%)">
    <animate attributeName="fill" from="hsl(200,40%,20%)" to="orange" begin="move6.begin + 4s" dur="3s" fill="freeze" />
    <animate attributeName="fill" from="orange" to="silver" begin="12s" dur="10s" fill="freeze" />
    </rect>
    <rect height="48.61" width="32.87" y="947" x="660.6" style="fill:hsl(200,40%,20%)">
     <animate attributeName="fill" from="hsl(200,40%,20%)" to="orange" begin="move6.begin + 4s" dur="3s" fill="freeze" />
     <animate attributeName="fill" from="orange" to="silver" begin="12s" dur="10s" fill="freeze" />
    </rect>
    <rect height="14.09" width="32.67" y="933.6" x="660.6" style="fill:hsl(200,40%,20%)">
    <animate attributeName="fill" from="hsl(200,40%,20%)" to="orange" begin="move6.begin + 2s" dur="9s" fill="freeze" />
    <animate attributeName="fill" from="orange" to="silver" begin="12s" dur="10s" fill="freeze" />
    </rect>
    <rect height="23.62" width="12.21" y="906.4" x="679.6" style="fill:hsl(200,40%,20%)">
    <animate attributeName="fill" from="hsl(200,40%,20%)" to="orange" begin="move6.begin + 3s" dur="2s" fill="freeze" />
    <animate attributeName="fill" from="orange" to="silver" begin="12s" dur="10s" fill="freeze" />
    </rect>
    <rect height="23.62" width="12.21" y="906.4" x="662.2" style="fill:hsl(200,40%,20%)">
    <animate attributeName="fill" from="hsl(200,40%,20%)" to="orange" begin="move6.begin + 4s" dur="8s" fill="freeze" />
    <animate attributeName="fill" from="orange" to="silver" begin="12s" dur="10s" fill="freeze" />
    </rect>
    <path d="m 692.9,902 l 0,25.9 l 1.6,0 l 0,60.1 l 0,1 l 0,303 l -35,0 l 0,-303 l 0,-1 l 0,-60.1 l 1.6,0 l 0,-25.9 l 14.3,0 l 0,25.9 l 3.1,0 l 0,-25.9 z m -1.8,5.7 l -10.7,0 l 0,6 l 10.7,0 z m -17.5,0 l -10.7,0 l 0,6 l 10.7,0 z m 17.5,6.9 l -10.7,0 l 0,6.3 l 10.7,0 z m -17.5,0 l -10.7,0 l 0,6.3 l 10.7,0 z m 17.5,7.2 l -10.7,0 l 0,6.2 l 10.7,0 z m -17.5,0 l -10.7,0 l 0,6.2 l 10.7,0 z m 18.8,12.7 l -5.5,0 l 0,5.5 l 5.5,0 z m -7,0 l -16.9,0 l 0,5.5 l 16.9,0 z m -18.4,0 l -5.5,0 l 0,5.5 l 5.5,0 z m 25.4,6.5 l -16.9,0 l 0,6 l 16.9,0 z m -18.3,0 l -5.6,0 l 0,6 l 5.6,0 z m 18.3,7 l -5.5,0 l 0,6 l 5.5,0 z m -14,0 l -16.9,0 l 0,6 l 16.9,0 z m 14,7 l -5.5,0 l 0,6 l 5.5,0 z m -7,0 l -16.9,0 l 0,6 l 16.9,0 z m -18.4,0 l -5.5,0 l 0,6 l 5.5,0 z m 25.4,7 l -5.5,0 l 0,6 l 5.5,0 z m -7,0 l -5.5,0 l 0,6 l 5.5,0 z m 7,7 l -5.5,0 l 0,6 l 5.5,0 z m -7,0 l -5.5,0 l 0,6 l 5.5,0 z m -7,0 l -16.9,0 l 0,6 l 16.9,0 z m 7,6 l -16.9,0 l 0,6 l 16.9,0 z m -18.4,0 l -5.5,0 l 0,6 l 5.5,0 z m 25.4,7 l -16.9,0 l 0,6 l 16.9,0 z m -18.3,0 l -5.6,0 l 0,6 l 5.6,0 z m 18.3,7 l -5.5,0 l 0,6 l 5.5,0 z m -7,0 l -16.9,0 l 0,6 l 16.9,0 z m -18.4,0 l -5.5,0 l 0,6 l 5.5,0 z m 18.4,7 l -5.5,0 l 0,6 l 5.5,0 z m -7,0 l -16.9,0 l 0,6 l 16.9,0 z m 14,7 l -16.9,0 l 0,6 l 16.9,0 z m -25.4,0 l -5.5,0 l 0,6 l 5.5,0 z m 25.4,7 l -5.5,0 l 0,6 l 5.5,0 z m -7,0 l -16.9,0 l 0,6 l 16.9,0 z m -18.4,0 l -5.5,0 l 0,6 l 5.5,0 z m 7.1,6 l -5.6,0 l 0,6 l 5.6,0 z m -7.1,0 l -5.5,0 l 0,6 l 5.5,0 z m 25.4,7 l -16.9,0 l 0,6 l 16.9,0 z m -18.3,0 l -5.6,0 l 0,6 l 5.6,0 z m -7.1,0 l -5.5,0 l 0,6 l 5.5,0 z m 25.4,7 l -5.5,0 l 0,6 l 5.5,0 z m -7,0 l -16.9,0 l 0,6 l 16.9,0 z m 0,7 l -5.5,0 l 0,6 l 5.5,0 z m -7,0 l -16.9,0 l 0,6 l 16.9,0 z">
    <animate attributeName="fill" from="#000" to="hsl(210,30%,40%)" begin="16s" dur="3s" fill="freeze" />
    </path>
  	<animateTransform id="move6" attributeName="transform"
                          attributeType="XML"
                          type="translate"
                          from="0 0"
                          to="0 -570"
                          dur="1s"
                          begin="move5.begin + 0.5s"
                          fill="freeze"/>
  </g>
  <g id="g7" class="t13">
    <rect height="44.8" width="34.4" y="1019" x="825.3" style="fill:hsl(200,40%,20%)">
    <animate attributeName="fill" from="hsl(200,40%,20%)" to="orange" begin="move7.begin + 1s" dur="3s" fill="freeze" />
    <animate attributeName="fill" from="orange" to="gainsboro" begin="18s" dur="10s" fill="freeze" />
    </rect>
    <rect height="29.99" width="33.76" y="989" x="825.3" style="fill:hsl(200,40%,20%)">
    <animate attributeName="fill" from="hsl(200,40%,20%)" to="orange" begin="move7.begin + 1.5s" dur="3s" fill="freeze" />
    <animate attributeName="fill" from="orange" to="gainsboro" begin="18s" dur="10s" fill="freeze" />
    </rect>
    <rect height="13.25" width="34.62" y="975" x="825.1" style="fill:hsl(200,40%,20%)">
    <animate attributeName="fill" from="hsl(200,40%,20%)" to="orange" begin="move7.begin + 2s" dur="3s" fill="freeze" />
    <animate attributeName="fill" from="orange" to="gainsboro" begin="18s" dur="10s" fill="freeze" />
    </rect>
    <rect height="14.96" width="34.4" y="960" x="824.8" style="fill:hsl(200,40%,20%)">
    <animate attributeName="fill" from="hsl(200,40%,20%)" to="orange" begin="move7.begin + 2.5s" dur="3s" fill="freeze" />
    <animate attributeName="fill" from="orange" to="gainsboro" begin="18s" dur="10s" fill="freeze" />
    </rect>
    <rect height="4.844" width="5.841" y="948" x="839.2" style="fill:hsl(200,40%,20%)">
    <animate attributeName="fill" from="hsl(200,40%,20%)" to="orange" begin="move7.begin + 3s" dur="3s" fill="freeze" />
    <animate attributeName="fill" from="orange" to="gainsboro" begin="18s" dur="10s" fill="freeze" />
    </rect>
    <rect height="4.701" width="17.17" y="948" x="845.8" style="fill:hsl(200,40%,20%)">
    <animate attributeName="fill" from="hsl(200,40%,20%)" to="orange" begin="move7.begin + 3.5s" dur="3s" fill="freeze" />
    <animate attributeName="fill" from="orange" to="gainsboro" begin="18s" dur="10s" fill="freeze" />
    </rect>
    <rect height="4.416" width="17.81" y="948" x="820.8" style="fill:hsl(200,40%,20%)">
    <animate attributeName="fill" from="hsl(200,40%,20%)" to="orange" begin="move7.begin + 4s" dur="3s" fill="freeze" />
    <animate attributeName="fill" from="orange" to="gainsboro" begin="18s" dur="10s" fill="freeze" />
    </rect>
    <rect height="7.693" width="16.45" y="921.6" x="833.9" style="fill:hsl(200,40%,20%)">
    <animate attributeName="fill" from="hsl(200,40%,20%)" to="orange" begin="move7.begin + 4.5s" dur="3s" fill="freeze" />
    <animate attributeName="fill" from="orange" to="gainsboro" begin="18s" dur="10s" fill="freeze" />
    </rect>
    <rect height="14.53" width="29.97" y="930" x="827" style="fill:hsl(200,40%,20%)">
    <animate attributeName="fill" from="hsl(200,40%,20%)" to="orange" begin="move7.begin + 5s" dur="3s" fill="freeze" />
    <animate attributeName="fill" from="orange" to="gainsboro" begin="18s" dur="10s" fill="freeze" />
    </rect>
    <path d="m 842.2,893.3 c -1.1,0 -2,1.1 -2,2.4 l 0,21.3 c -4.9,0.9 -8.6,6.7 -8.9,11.7 l -0.8,0 l -0.7,0 c -2.7,0.3 -4.9,2.7 -4.9,5.5 l 0,11.8 l 34.6,0 l 0,-11.8 c 0,-2.8 -2.2,-5.2 -5,-5.5 l -0.6,0 l -0.9,0 c -0.2,-5 -4,-10.8 -8.9,-11.7 l 0,-21.3 c 0,-1.3 -0.8,-2.4 -1.9,-2.4 z m -0.5,28.6 l 0,6.8 l -7.4,0 c 0.6,-3.7 3.6,-6.6 7.4,-6.8 z m 1,0 c 3.8,0.2 6.8,3.1 7.3,6.8 l -7.3,0 z m -11.3,8.4 l 4,0 l 0,2.8 l -6.3,0 c 0.1,-1.5 1,-2.4 2.3,-2.8 z m 4.9,0 l 11.7,0 l 0,2.8 l -11.7,0 z m 12.7,0 l 4,0 c 1.2,0.4 2.1,1.3 2.2,2.8 l -6.2,0 z m -19.9,3.8 l 6.3,0 l 0,8.9 l -6.3,0 z m 7.2,0 l 11.7,0 l 0,8.9 l -11.7,0 z m 12.7,0 l 6.2,0 l 0,8.9 l -6.2,0 z M 820.5,947 c -1.6,0 -2.7,1 -2.7,2 l 0,4 c 0,1 1.1,2 2.7,2 l 43.3,0 c 1.6,0 2.8,-1 2.8,-2 l 0,-4 c 0,-1 -1.2,-2 -2.8,-2 z m 3.5,2 c 1,0 1.8,1 1.8,2 c 0,1 -0.8,1 -1.8,1 c -1,0 -1.9,0 -1.9,-1 c 0,-1 0.9,-2 1.9,-2 z m 6,0 c 1,0 1.9,1 1.9,2 c 0,1 -0.9,1 -1.9,1 c -1,0 -1.8,0 -1.8,-1 c 0,-1 0.8,-2 1.8,-2 z m 6.1,0 c 1,0 1.8,1 1.8,2 c 0,1 -0.8,1 -1.8,1 c -1,0 -1.8,0 -1.8,-1 c 0,-1 0.8,-2 1.8,-2 z m 6.1,0 c 1,0 1.8,1 1.8,2 c 0,1 -0.8,1 -1.8,1 c -1,0 -1.9,0 -1.9,-1 c 0,-1 0.9,-2 1.9,-2 z m 6,0 c 1,0 1.9,1 1.9,2 c 0,1 -0.9,1 -1.9,1 c -1,0 -1.8,0 -1.8,-1 c 0,-1 0.8,-2 1.8,-2 z m 6.1,0 c 1,0 1.8,1 1.8,2 c 0,1 -0.8,1 -1.8,1 c -1,0 -1.8,0 -1.8,-1 c 0,-1 0.8,-2 1.8,-2 z m 6.1,0 c 1,0 1.8,1 1.8,2 c 0,1 -0.8,1 -1.8,1 c -1,0 -1.9,0 -1.9,-1 c 0,-1 0.9,-2 1.9,-2 z m -38.2,7 l 0,334 l 39.9,0 l 0,-334 z m 6.1,5 l 0.2,0 l 4.3,0 c 1.3,0 2.3,1 2.3,2 l 0,11 l -9.1,0 l 0,-11 c 0,-1 1.1,-2 2.3,-2 z m 11.7,0 l 0.1,0 l 4.2,0 c 1.4,0 2.4,1 2.4,2 l 0,11 l -9.1,0 l 0,-11 c 0,-1 1,-2 2.4,-2 z m 11.6,0 l 0.1,0 l 4.2,0 c 1.3,0 2.4,1 2.4,2 l 0,11 l -9.1,0 l 0,-11 c 0,-1 1,-2 2.4,-2 z m -23.3,15 l 0.2,0 l 4.3,0 c 1.3,0 2.3,1 2.3,2 l 0,10 l -9.1,0 l 0,-10 c 0,-1 1.1,-2 2.3,-2 z m 11.6,0 l 0.2,0 l 4.2,0 c 1.4,0 2.4,1 2.4,2 l 0,10 l -9.1,0 l 0,-10 c 0,-1 1,-2 2.3,-2 z m 11.7,0 l 0.1,0 l 4.2,0 c 1.3,0 2.4,1 2.4,2 l 0,10 l -9.1,0 l 0,-10 c 0,-1 1,-2 2.4,-2 z m -23.3,14 l 0.2,0 l 4.3,0 c 1.3,0 2.3,1 2.3,3 l 0,10 l -9.1,0 l 0,-10 c 0,-2 1.1,-3 2.3,-3 z m 11.6,0 l 0.2,0 l 4.2,0 c 1.4,0 2.4,1 2.4,3 l 0,10 l -9.1,0 l 0,-10 c 0,-2 1,-3 2.3,-3 z m 11.7,0 l 0.1,0 l 4.2,0 c 1.3,0 2.4,1 2.4,3 l 0,10 l -9.1,0 l 0,-10 c 0,-2 1,-3 2.4,-3 z m -23.3,15 l 0.2,0 l 4.3,0 c 1.3,0 2.3,1 2.3,2 l 0,11 l -9.1,0 l 0,-11 c 0,-1 1.1,-2 2.3,-2 z m 11.6,0 l 0.2,0 l 4.2,0 c 1.4,0 2.4,1 2.4,2 l 0,11 l -9.1,0 l 0,-11 c 0,-1 1,-2 2.3,-2 z m 11.7,0 l 0.1,0 l 4.2,0 c 1.3,0 2.4,1 2.4,2 l 0,11 l -9.1,0 l 0,-11 c 0,-1 1,-2 2.4,-2 z m -23.3,15 l 0.2,0 l 4.3,0 c 1.2,0 2.3,1 2.3,2 l 0,11 l -9.1,0 l 0,-11 c 0,-1 1.1,-2 2.3,-2 z m 11.6,0 l 0.2,0 l 4.2,0 c 1.4,0 2.4,1 2.4,2 l 0,11 l -9.1,0 l 0,-11 c 0,-1 1,-2 2.3,-2 z m 11.7,0 l 0.1,0 l 4.2,0 c 1.3,0 2.4,1 2.4,2 l 0,11 l -9.1,0 l 0,-11 c 0,-1 1,-2 2.4,-2 z m -23.3,15 l 0.2,0 l 4.3,0 c 1.2,0 2.3,1 2.3,2 l 0,11 l -9.1,0 l 0,-11 c 0,-1 1.1,-2 2.3,-2 z m 11.6,0 l 0.2,0 l 4.2,0 c 1.4,0 2.4,1 2.4,2 l 0,11 l -9.1,0 l 0,-11 c 0,-1 1,-2 2.3,-2 z m 11.7,0 l 0.1,0 l 4.2,0 c 1.3,0 2.4,1 2.4,2 l 0,11 l -9.1,0 l 0,-11 c 0,-1 1,-2 2.4,-2 z m -23.3,15 l 0.2,0 l 4.3,0 c 1.2,0 2.3,1 2.3,2 l 0,10 l -9.1,0 l 0,-10 c 0,-1 1.1,-2 2.3,-2 z m 11.6,0 l 0.2,0 l 4.2,0 c 1.4,0 2.4,1 2.4,2 l 0,10 l -9.1,0 l 0,-10 c 0,-1 1,-2 2.3,-2 z m 11.7,0 l 0.1,0 l 4.2,0 c 1.3,0 2.4,1 2.4,2 l 0,10 l -9.1,0 l 0,-10 c 0,-1 1,-2 2.4,-2 z">
    	<animate attributeName="fill" from="#000" to="hsl(190,30%,60%)" begin="move7.end + 7s" dur="3s" fill="freeze" />
    </path>
  	<animateTransform 	id="move7" attributeName="transform"
                          attributeType="XML"
                          type="translate"
                          from="0 0"
                          to="0 -570"
                          dur="1s"
                          begin="move6.begin + 0.5s"
                          fill="freeze"/>
  </g>
  <g id="g8" class="t10">
    <rect height="45.38" width="34.61" y="1007" x="696" style="fill:hsl(200,40%,20%)">
    <animate attributeName="fill" from="hsl(200,40%,20%)" to="orange" begin="move8.end + 0.5s" dur="4s" fill="freeze" />
    <animate attributeName="fill" from="orange" to="gainsboro" begin="12s" dur="10s" fill="freeze" />
    </rect>
    <rect height="35.08" width="34.61" y="972" x="696" style="fill:hsl(200,40%,20%)">
    <animate attributeName="fill" from="hsl(200,40%,20%)" to="orange" begin="move8.end + 1s" dur="4s" fill="freeze" />
    <animate attributeName="fill" from="orange" to="gainsboro" begin="12s" dur="10s" fill="freeze" />
    </rect>
    <rect height="37.78" width="34.61" y="933.7" x="696" style="fill:hsl(200,40%,20%)">
    <animate attributeName="fill" from="hsl(200,40%,20%)" to="orange" begin="move8.end + 1.5s" dur="74s" fill="freeze" />
    <animate attributeName="fill" from="orange" to="gainsboro" begin="12s" dur="10s" fill="freeze" />
    </rect>
    <rect height="23.52" width="13.28" y="906.8" x="715.7" style="fill:hsl(200,40%,20%)">
    <animate attributeName="fill" from="hsl(200,40%,20%)" to="orange" begin="move8.end + 2s" dur="4s" fill="freeze" />
    <animate attributeName="fill" from="orange" to="gainsboro" begin="12s" dur="10s" fill="freeze" />
    </rect>
    <rect height="23.52" width="13.28" y="906.8" x="697.2" style="fill:hsl(200,40%,20%)">
    <animate attributeName="fill" from="hsl(200,40%,20%)" to="orange" begin="move8.end + 2.5s" dur="4s" fill="freeze" />
    <animate attributeName="fill" from="orange" to="gainsboro" begin="12s" dur="10s" fill="freeze" />
    </rect>
    <path d="m 696.6,902.2 l 0,27.3 l -1.7,0 l 0,63.5 l 0,1 l 0,326 l 36.9,0 l 0,-326 l 0,-1 l 0,-63.5 l -1.7,0 l 0,-27.3 l -15.1,0 l 0,27.3 l -3.3,0 l 0,-27.3 z m 1.8,6 l 11.3,0 l 0,6.3 l -11.3,0 z m 18.5,0 l 11.3,0 l 0,6.3 l -11.3,0 z m -18.5,7.3 l 11.3,0 l 0,6.6 l -11.3,0 z m 18.5,0 l 11.3,0 l 0,6.6 l -11.3,0 z m -18.5,7.5 l 11.3,0 l 0,6.6 l -11.3,0 z m 18.5,0 l 11.3,0 l 0,6.6 l -11.3,0 z M 697,936.4 l 5.8,0 l 0,6.6 l -5.8,0 z m 7.4,0 l 17.8,0 l 0,6.6 l -17.8,0 z m 19.4,0 l 5.8,0 l 0,6.6 l -5.8,0 z M 697,944 l 17.9,0 l 0,6 l -17.9,0 z m 19.4,0 l 5.8,0 l 0,6 l -5.8,0 z m -19.4,7 l 5.8,0 l 0,6 l -5.8,0 z m 14.8,0 l 17.8,0 l 0,6 l -17.8,0 z m -14.8,7 l 5.8,0 l 0,6 l -5.8,0 z m 7.4,0 l 17.8,0 l 0,6 l -17.8,0 z m 19.4,0 l 5.8,0 l 0,6 l -5.8,0 z m -26.8,7 l 5.8,0 l 0,6 l -5.8,0 z m 7.4,0 l 5.8,0 l 0,6 l -5.8,0 z m -7.4,7 l 5.8,0 l 0,7 l -5.8,0 z m 7.4,0 l 5.8,0 l 0,7 l -5.8,0 z m 7.4,0 l 17.8,0 l 0,7 l -17.8,0 z m -7.4,8 l 17.8,0 l 0,6 l -17.8,0 z m 19.4,0 l 5.8,0 l 0,6 l -5.8,0 z m -26.8,7 l 17.9,0 l 0,6 l -17.9,0 z m 19.4,0 l 5.8,0 l 0,6 l -5.8,0 z m -19.4,7 l 5.8,0 l 0,6 l -5.8,0 z m 7.4,0 l 17.8,0 l 0,6 l -17.8,0 z m 19.4,0 l 5.8,0 l 0,6 l -5.8,0 z m -19.4,7 l 5.8,0 l 0,6 l -5.8,0 z m 7.4,0 l 17.8,0 l 0,6 l -17.8,0 z m -14.8,7 l 17.9,0 l 0,7 l -17.9,0 z m 26.8,0 l 5.8,0 l 0,7 l -5.8,0 z m -26.8,8 l 5.8,0 l 0,6 l -5.8,0 z m 7.4,0 l 17.8,0 l 0,6 l -17.8,0 z m 19.4,0 l 5.8,0 l 0,6 l -5.8,0 z m -7.4,7 l 5.8,0 l 0,6 l -5.8,0 z m 7.4,0 l 5.8,0 l 0,6 l -5.8,0 z m -26.8,7 l 17.9,0 l 0,6 l -17.9,0 z m 19.4,0 l 5.8,0 l 0,6 l -5.8,0 z m 7.4,0 l 5.8,0 l 0,6 l -5.8,0 z m -26.8,7 l 5.8,0 l 0,7 l -5.8,0 z m 7.4,0 l 17.8,0 l 0,7 l -17.8,0 z m 0,8 l 5.8,0 l 0,6 l -5.8,0 z m 7.4,0 l 17.8,0 l 0,6 l -17.8,0 z">
    <animate attributeName="fill" from="#000" to="hsl(30,70%,60%)" begin="16s" dur="3s" fill="freeze" />
    </path>
  	<animateTransform id="move8" 
  						attributeName="transform"
                          attributeType="XML"
                          type="translate"
                          from="0 0"
                          to="0 -598"
                          dur="0.5s" 
                          begin="move7.begin + 0.3s"
                          fill="freeze"/>
  </g>
  <g id="g9" class="t1">
    <rect height="26.67" width="40.18" y="1033" x="46.05" style="fill:hsl(200,40%,20%)">
    <animate attributeName="fill" from="hsl(200,40%,20%)" to="orange" begin="move9.end + 0.4s" dur="2s" fill="freeze" />
    <animate attributeName="fill" from="orange" to="gainsboro" begin="14s" dur="4s" fill="freeze" />
    </rect>
    <rect height="27.38" width="30.93" y="992" x="45.33" style="fill:hsl(200,40%,20%)">
    <animate attributeName="fill" from="hsl(200,40%,20%)" to="orange" begin="move9.end + 0.8s" dur="2s" fill="freeze" />
    <animate attributeName="fill" from="orange" to="gainsboro" begin="14s" dur="4s" fill="freeze" />
    </rect>
    <rect height="30.58" width="11.37" y="1002" x="75.56" style="fill:hsl(200,40%,20%)">
    <animate attributeName="fill" from="hsl(200,40%,20%)" to="orange" begin="move9.end + 1.2s" dur="2s" fill="freeze" />
    <animate attributeName="fill" from="orange" to="gainsboro" begin="14s" dur="4s" fill="freeze" />
    </rect>
    <rect height="26.31" width="39.65" y="966" x="45.87" style="fill:hsl(200,40%,20%)">
    <animate attributeName="fill" from="hsl(200,40%,20%)" to="orange" begin="move9.end + 1.6s" dur="2s" fill="freeze" />
    <animate attributeName="fill" from="orange" to="gainsboro" begin="14s" dur="4s" fill="freeze" />
    </rect>
    <path d="M 65.77,911.9 A 14.01,29.13 0 0 0 51.76,941 a 14.01,29.13 0 0 0 0.1,3 l 27.86,0 a 14.01,29.13 0 0 0 0.1,-3 A 14.01,29.13 0 0 0 65.77,911.9 Z" style="fill:hsl(200,40%,20%);stroke:#552200;stroke-width:0.6487;stroke-linecap:round;stroke-linejoin:round">
    <animate attributeName="fill" from="hsl(200,40%,20%)" to="orange" begin="move9.end + 2s" dur="2s" fill="freeze" />
    <animate attributeName="fill" from="orange" to="gainsboro" begin="14s" dur="4s" fill="freeze" />
    </path>
    <rect height="9.778" width="36.98" y="949" x="46.76" style="fill:hsl(200,40%,20%)">
		<animate attributeName="fill" from="hsl(200,40%,20%)" to="orange" begin="move9.end + 2.5s" dur="2s" fill="freeze" />
		<animate attributeName="fill" from="orange" to="gainsboro" begin="14s" dur="4s" fill="freeze" />
    </rect>
    <path d="m 65.72,893.1 l -0.2,8.5 c -0.4,0.4 -0.8,1.9 -0.9,3 c -1.2,0.9 -2.2,3.1 -2.6,4.7 c 1.2,-0.7 2.4,-1.2 3.7,-1.2 c 1.2,0 2.5,0.5 3.7,1.2 c -0.5,-1.6 -1.4,-3.8 -2.6,-4.7 c -0.1,-1.1 -0.5,-2.6 -1,-3 z m 0,15.7 c -7.4,0 -13.9,14.3 -18,36.2 l 35.9,0 c -4,-21.9 -10.6,-36.2 -17.9,-36.2 z m 0,5.9 c 0.9,0 1.8,0.4 2.8,1 c 1.5,4.3 3,10.6 4.2,18.2 l -14.1,0 c 1.3,-7.6 2.7,-13.9 4.3,-18.1 c 0.9,-0.7 1.8,-1 2.8,-1.1 z m 3.6,1.7 c 3.1,2.8 6,9.2 8.4,17.5 l -4.2,0 c -1.2,-7.4 -2.7,-13.5 -4.2,-17.5 z m -7.3,0.1 c -1.5,4 -2.9,10.1 -4.2,17.4 l -4.1,0 c 2.4,-8.2 5.2,-14.5 8.3,-17.4 z m -8.5,18.1 l 4.2,0 c -0.3,1.9 -0.6,3.7 -0.9,5.4 l -4.7,0 c 0.4,-1.7 0.9,-3.5 1.4,-5.4 z m 5,0 l 14.3,0 c 0.3,1.9 0.6,3.7 0.9,5.4 l -16,0 c 0.2,-1.7 0.5,-3.5 0.8,-5.4 z m 15.2,0 l 4.2,0 c 0.5,1.9 0.9,3.7 1.4,5.4 l -4.8,0 c -0.2,-1.7 -0.5,-3.5 -0.8,-5.4 z m -28,11.4 c -0.8,5 -1.6,10 -2.3,15 l 2,0 l 40.6,0 l 1.9,0 c -0.6,-5 -1.4,-10 -2.3,-15 l -1.7,0 l -36.4,0 z m 7.1,4 l 0.2,0 l 0.2,0 l 0.1,0 l 0.2,0 l 0.9,0 c 1.8,0 3.1,2 3.1,4 c 0,2 -1.5,3 -3.6,4 l -0.5,0 l -0.2,0 l -0.1,0 l -0.1,0 l -0.2,0 l -0.3,0 l -0.2,0 l -0.2,0 l -0.3,0 l -0.2,0 l -0.5,0 l -0.1,0 c -1,-1 -1.7,-1 -2.3,-2 c -0.2,0 -0.4,-1 -0.5,-1 l -0.1,-1 c 0,-2 1.7,-4 4,-4 l 0.7,0 z m 12.9,0 l 0.2,0 l 0.3,0 c 2.4,0 4.2,2 4.2,4 c 0,2 -1.8,4 -4.1,4 l -0.2,0 l -0.1,0 l -0.1,0 l -0.2,0 l -0.3,0 l -0.2,0 l -0.2,0 l -0.3,0 l -0.2,0 c -1.2,0 -2.2,-1 -2.9,-2 c -0.2,0 -0.4,-1 -0.5,-1 c -0.1,-1 -0.2,-1 -0.2,-1 c 0,-2 1.9,-4 4.3,-4 l 0.5,0 z m 12.9,0 l 0.2,0 l 0.2,0 l 0.3,0 l 0.9,0 c 1.8,0 3.1,2 3.1,4 c 0,2 -1.6,3 -3.7,4 l -0.4,0 l -0.3,0 l -0.1,0 l -0.2,0 l -0.3,0 l -0.2,0 l -0.2,0 l -0.1,0 l -0.2,0 l -0.2,0 c -1.2,0 -2.3,-1 -2.9,-2 c -0.2,0 -0.4,-1 -0.6,-1 c 0,-1 -0.1,-1 -0.1,-1 c 0,-2 1.9,-4 4.3,-4 l 0.5,0 z m -25.7,2 c -1.1,0 -2,1 -2,2 c 0,1 0.9,2 2,2 c 1,0 1.9,-1 1.9,-2 c 0,-1 -0.9,-2 -1.9,-2 z m 12.8,0 c -1.1,0 -2,1 -2,2 c 0,1 0.9,2 2,2 c 1.1,0 1.9,-1 1.9,-2 c 0,-1 -0.8,-2 -1.9,-2 z m 12.8,0 c -1.1,0 -2,1 -2,2 c 0,1 0.9,2 2,2 c 1.1,0 2,-1 2,-2 c 0,-1 -0.9,-2 -2,-2 z m -33.2,10 c -1.2,11 -1.8,23 -1.8,36 c 0,13 0.7,310 1.9,322 l 40.5,0 c 1.3,-12 2,-309 2,-322 c 0,-13 -0.6,-25 -1.8,-36 z m 3,5 l 8.1,0 c -0.3,3 -0.6,7 -0.8,11 l -8.1,0 c 0.2,-4 0.5,-8 0.8,-11 z m 9,0 l 7.8,0 l 0,11 l -8.5,0 c 0.2,-4 0.5,-8 0.7,-11 z m 17.7,0 l 8.1,0 c 0.3,3 0.6,7 0.8,11 l -8.1,0 c -0.2,-4 -0.5,-8 -0.8,-11 z m -18.5,12 l 8.6,0 l 0,12 l -9,0 c 0.1,-4 0.3,-8 0.4,-12 z m 9.8,0 l 8.5,0 c 0.2,4 0.4,8 0.5,12 l -9,0 z m 9.6,0 l 8.1,0 c 0.2,4 0.4,8 0.5,12 l -8.1,0 c -0.1,-4 -0.3,-8 -0.5,-12 z m -29.1,14 l 8.2,0 c -0.1,3 -0.2,6 -0.2,9 l 0,3 l -8,0 l 0,-3 l 0,-9 z m 9.3,0 l 9,0 l 0,12 l -9.1,0 l 0,-3 c 0,-3 0,-6 0.1,-9 z m 10.2,0 l 9,0 c 0.1,3 0.1,6 0.1,9 l 0,3 l -9.1,0 l 0,-12 z m -19.5,13 l 8.1,0 c 0,4 0.1,8 0.1,12 l -8.1,0 c -0.1,-4 -0.1,-8 -0.1,-12 z m 19.5,0 l 9.1,0 c -0.1,4 -0.1,8 -0.2,12 l -8.9,0 z m 10.2,0 l 8.1,0 c 0,4 -0.1,8 -0.2,12 l -8,0 c 0,-4 0.1,-8 0.1,-12 z m -0.2,14 l 8.1,0 l -0.3,12 l -8,0 c 0.1,-4 0.2,-8 0.2,-12 z m -29,14 l 8.1,0 c 0,4 0.2,8 0.3,12 l -8,0 c -0.2,-4 -0.3,-8 -0.4,-12 z m 9.1,0 l 8.7,0 l 0,12 l -8.3,0 c -0.1,-4 -0.3,-8 -0.4,-12 z m 9.9,0 l 8.6,0 c -0.1,4 -0.2,8 -0.4,12 l -8.2,0 z m -9.4,13 l 8.2,0 l 0,11 l -7.6,0 c -0.2,-3 -0.4,-7 -0.6,-11 z m 9.4,0 l 8.2,0 c -0.2,4 -0.4,8 -0.6,11 l -7.6,0 z m 9.2,0 l 8.1,0 c -0.2,4 -0.4,8 -0.7,11 l -8,0 c 0.2,-3 0.4,-7 0.6,-11 z">
    <animate attributeName="fill" from="hsl(90,60%,0%)" to="hsl(170,40%,50%)" begin="move9.end + 5s" dur="3s" fill="freeze" />
    </path>
  	<animateTransform id="move9"
  						attributeName="transform"
                          attributeType="XML"
                          type="translate"
                          from="0 0"
                          to="0 -598"
                          dur="1.5s"
                          begin="move8.begin + 0.2s"
                          fill="freeze"/>
  </g>
  <g id="g10" class="t11">
    <rect height="75.76" width="23.71" y="1010" x="746.5" style="fill:hsl(200,40%,20%)">
   	 <animate attributeName="fill" from="hsl(200,40%,20%)" to="orange" begin="move10.end + 2.5s" dur="1s" fill="freeze" />
   	 <animate attributeName="fill" from="orange" to="lightslategray" begin="12s" dur="5s" fill="freeze" />
    </rect>
    <path d="m 746.2,956 l 24.2,18 l 0,35 l -24.2,0 z" style="fill:hsl(200,40%,20%)">
    <animate attributeName="fill" from="hsl(200,40%,20%)" to="orange" begin="move10.end + 3s" dur="8s" fill="freeze" />
    <animate attributeName="fill" from="orange" to="lightslategray" begin="12s" dur="5s" fill="freeze" />
    </path>
    <path d="m 746.5,911 l 15.2,10.8 l 0,42.2 l -15.2,-12 z" style="fill:hsl(200,40%,20%)">
    <animate attributeName="fill" from="hsl(200,40%,20%)" to="orange" begin="move10.end + 3.5s" dur="5s" fill="freeze" />
    <animate attributeName="fill" from="orange" to="lightslategray" begin="12s" dur="5s" fill="freeze" />
    </path>
    <path d="m 745.7,902.2 l 0,44.8 l 0,8 l 0,337 l 25.5,0 l 0,-320 l -8.9,-9 l 0,-43.7 z m 1.5,9.5 l 3.3,2.4 l 0,13.3 l -3.3,0 z m 4.3,3.1 l 5,3.6 l 0,9 l -5,0 z m 6,4.3 l 3.3,2.4 l 0,5.9 l -3.3,0 z m -10.3,9.7 l 3.3,0 l 0,22.2 l -3.3,-3 z m 4.3,0 l 5,0 l 0,28.2 l -5,-5 z m 6,0 l 3.3,0 l 0,33.2 l -3.3,-4 z M 747.2,957 l 6.1,5 l 0,20 l -6.1,0 z m 7.2,6 l 7.9,6 l 0,13 l -7.9,0 z m 9,7 l 6.4,5 l 0,7 l -6.4,0 z m -16.2,13 l 6.1,0 l 0,25 l -6.1,0 z m 7.2,0 l 7.9,0 l 0,25 l -7.9,0 z m 8.9,0 l 6.5,0 l 0,25 l -6.5,0 z m -16.1,28 l 4,0 l 0,7 l -4,0 z m 5.1,0 l 12.3,0 l 0,7 l -12.3,0 z m 13.4,0 l 4,0 l 0,7 l -4,0 z m -13.4,9 l 4,0 l 0,7 l -4,0 z m 5.1,0 l 12.3,0 l 0,7 l -12.3,0 z m -10.2,8 l 12.3,0 l 0,8 l -12.3,0 z m 18.5,0 l 4,0 l 0,8 l -4,0 z m -18.5,9 l 4,0 l 0,8 l -4,0 z m 5.1,0 l 12.3,0 l 0,8 l -12.3,0 z m 13.4,0 l 4,0 l 0,8 l -4,0 z m -5.1,9 l 4,0 l 0,7 l -4,0 z m 5.1,0 l 4,0 l 0,7 l -4,0 z m -18.5,9 l 12.3,0 l 0,7 l -12.3,0 z m 13.4,0 l 4,0 l 0,7 l -4,0 z m 5.1,0 l 4,0 l 0,7 l -4,0 z m -18.5,8 l 4,0 l 0,8 l -4,0 z m 5.1,0 l 12.3,0 l 0,8 l -12.3,0 z m 0,9 l 4,0 l 0,8 l -4,0 z m 5.1,0 l 12.3,0 l 0,8 l -12.3,0 z">
    	<animate attributeName="fill" from="hsl(90,60%,0%)" to="hsl(90,60%,80%)" begin="16s" dur="3s" fill="freeze" />
    </path>
  	<animateTransform id="move10" attributeName="transform"
                          attributeType="XML"
                          type="translate"
                          from="0 0"
                          to="0 -570"
                          dur="1s"
                          begin="move9.begin + 1s" 
                          fill="freeze"/>
  </g>
  <g id="g11" class="t15">
    <path d="m 942.8,906 l 27.2,-7 l 27.3,7 l 0,26.1 l -54.5,0 z" style="fill:hsl(200,40%,20%)">
    <animate attributeName="fill" from="hsl(200,40%,20%)" to="orange" begin="move11.end + 2s" dur="2s" fill="freeze" />
    <animate attributeName="fill" from="orange" to="gray" begin="15s" dur="10s" fill="freeze" />
    </path>
    <rect height="123.7" width="53.51" y="937.2" x="943.2" style="fill:hsl(200,40%,20%)">
     <animate attributeName="fill" from="hsl(200,40%,20%)" to="orange" begin="move11.end + 3s" dur="2s" fill="freeze" />
     <animate attributeName="fill" from="orange" to="gray" begin="15s" dur="10s" fill="freeze" />
    </rect>
	<g>
		<path d="m 941.1,933.6 l 0,325.4 l 57.6,0 l 0,-325.4 z m 3.7,5.2 l 10.6,0 l 0,13.2 l -10.6,0 z m 13.3,0 l 10.6,0 l 0,13.2 l -10.6,0 z m 26.5,0 l 10.5,0 l 0,13.2 l -10.5,0 z M 944.8,954 l 10.6,0 l 0,13 l -10.6,0 z m 13.3,0 l 10.6,0 l 0,13 l -10.6,0 z m 13.2,0 l 10.6,0 l 0,13 l -10.6,0 z m -13.2,14 l 10.6,0 l 0,14 l -10.6,0 z m 13.2,0 l 10.6,0 l 0,14 l -10.6,0 z m 13.3,0 l 10.5,0 l 0,14 l -10.5,0 z m -39.8,15 l 10.6,0 l 0,13 l -10.6,0 z m 13.3,0 l 10.6,0 l 0,13 l -10.6,0 z m 26.5,0 l 10.5,0 l 0,13 l -10.5,0 z m -39.8,15 l 10.6,0 l 0,13 l -10.6,0 z m 13.3,0 l 10.6,0 l 0,13 l -10.6,0 z m 13.2,0 l 10.6,0 l 0,13 l -10.6,0 z m 13.3,0 l 10.5,0 l 0,13 l -10.5,0 z m -39.8,15 l 10.6,0 l 0,13 l -10.6,0 z m 13.3,0 l 10.6,0 l 0,13 l -10.6,0 z m 26.5,0 l 10.5,0 l 0,13 l -10.5,0 z m -39.8,14 l 10.6,0 l 0,14 l -10.6,0 z m 13.3,0 l 10.6,0 l 0,14 l -10.6,0 z m 13.2,0 l 10.6,0 l 0,14 l -10.6,0 z m 13.3,0 l 10.5,0 l 0,14 l -10.5,0 z m -39.8,15 l 10.6,0 l 0,14 l -10.6,0 z m 13.3,0 l 10.6,0 l 0,14 l -10.6,0 z m 13.2,0 l 10.6,0 l 0,14 l -10.6,0 z" />
		<path d="m 970.2,896.3 c -12.7,0 -23.7,3.1 -28.8,5.1 l 0,31.5 l 57.6,0 l 0,-31.5 c -5.2,-2 -16.2,-5.1 -28.8,-5.1 z m 0,6.9 c 4,0 7.9,0.3 11.5,0.8 l 0,6.6 c -3.6,-0.4 -7.5,-0.7 -11.5,-0.7 c -4.1,0 -8,0.3 -11.6,0.7 l 0,-6.6 c 3.6,-0.5 7.4,-0.8 11.6,-0.8 z m -13.5,1.1 l 0,6.6 c -5.4,0.8 -10.1,1.9 -13.3,2.9 l 0,-6.2 c 2.9,-1.1 7.5,-2.4 13.3,-3.3 z m 26.8,0 c 5.8,0.9 10.5,2.2 13.3,3.3 l 0,6.2 c -3.1,-1 -7.8,-2.1 -13.3,-2.9 z m -13.3,7 c 4,0 7.9,0.3 11.5,0.7 l 0,19.5 l -23.1,0 l 0,-19.5 c 3.6,-0.4 7.5,-0.7 11.6,-0.7 z m -13.5,1 l 0,19.2 l -13.3,0 l 0,-16.3 c 3.2,-1 7.9,-2.1 13.3,-2.9 z m 26.8,0 c 5.5,0.8 10.2,1.9 13.3,2.9 l 0,16.3 l -13.3,0 z" />
		<animate attributeName="fill" from="#000" to="hsl(190,40%,70%)" begin="16s" dur="3s" fill="freeze" />
	</g>
  	<animateTransform id="move11" attributeName="transform"
                          attributeType="XML"
                          type="translate"
                          from="0 0"
                          to="0 -536"
                          dur="0.3s"
                          begin="move10.begin + 0.5s"
                          fill="freeze"/>
  </g>
  <g id="g12" class="t3">
    <rect height="60.76" width="51.5" y="987" x="200.8" style="fill:hsl(200,40%,20%)">
    	<animate attributeName="fill" from="hsl(200,40%,20%)" to="orange" begin="move12.end + 0.3s" dur="2s" fill="freeze" />
    	<animate attributeName="fill" from="orange" to="gainsboro" begin="move12.end + 2s" dur="5s" fill="freeze" />
    </rect>
    <rect height="13.52" width="36.32" y="974" x="215.5" style="fill:hsl(200,40%,20%)">
    	<animate attributeName="fill" from="hsl(200,40%,20%)" to="orange" begin="move12.end + 0.6s" dur="2s" fill="freeze" />
    	<animate attributeName="fill" from="orange" to="gainsboro" begin="move12.end + 2.2s" dur="5s" fill="freeze" />
    </rect>
    <rect height="13.52" width="12.11" y="974" x="202.7" style="fill:hsl(200,40%,20%)">
    	<animate attributeName="fill" from="hsl(200,40%,20%)" to="orange" begin="move12.end + 0.9s" dur="2s" fill="freeze" />
    	<animate attributeName="fill" from="orange" to="gainsboro" begin="move12.end + 2.4s" dur="5s" fill="freeze" />
    </rect>
    <rect height="12.81" width="49.13" y="961" x="202.7" style="fill:hsl(200,40%,20%)">
    	<animate attributeName="fill" from="hsl(200,40%,20%)" to="orange" begin="move12.end + 1.2s" dur="2s" fill="freeze" />
    	<animate attributeName="fill" from="orange" to="gainsboro" begin="move12.end + 2.6s" dur="5s" fill="freeze" />
    </rect>
    <rect height="27.29" width="49.13" y="932.8" x="202.7" style="fill:hsl(200,40%,20%)">
    	<animate attributeName="fill" from="hsl(200,40%,20%)" to="orange" begin="move12.end + 1.5s" dur="1s" fill="freeze" />
    	<animate attributeName="fill" from="orange" to="gainsboro" begin="move12.end + 2.8s" dur="5s" fill="freeze" />
    </rect>
    <rect height="28.25" width="13.77" y="901" x="239.2" style="fill:hsl(200,40%,20%)">
    	<animate attributeName="fill" from="hsl(200,40%,20%)" to="orange" begin="move12.end + 1.8s" dur="2s" fill="freeze" />
    	<animate attributeName="fill" from="orange" to="gainsboro" begin="move12.end + 3s" dur="5s" fill="freeze" />
    </rect>
    <rect height="28.25" width="22.31" y="901" x="216.5" style="fill:hsl(200,40%,20%)">
    	<animate attributeName="fill" from="hsl(200,40%,20%)" to="orange" begin="move12.end + 2.1s" dur="2s" fill="freeze" />
    	<animate attributeName="fill" from="orange" to="gainsboro" begin="move12.end + 3.5s" dur="5s" fill="freeze" />
    </rect>
    <rect height="28.25" width="14.48" y="901" x="201.5" style="fill:hsl(200,40%,20%)">
    	<animate attributeName="fill" from="hsl(200,40%,20%)" to="orange" begin="move12.end + 2.4s" dur="2s" fill="freeze" />
    	<animate attributeName="fill" from="orange" to="gainsboro" begin="move12.end + 4s" dur="5s" fill="freeze" />
    </rect>
<g>
    <path d="m 200.6,930.1 l 0,314.9 l 53.5,0 l 0,-314.9 z m 3.4,4.6 l 9.9,0 l 0,12.3 l -9.9,0 z m 12.4,0 l 9.8,0 l 0,12.3 l -9.8,0 z m 24.6,0 l 9.8,0 l 0,12.3 l -9.8,0 z M 204,948 l 9.9,0 l 0,12 l -9.9,0 z m 12.4,0 l 9.8,0 l 0,12 l -9.8,0 z m 12.3,0 l 9.8,0 l 0,12 l -9.8,0 z m -12.3,13 l 9.8,0 l 0,12 l -9.8,0 z m 12.3,0 l 9.8,0 l 0,12 l -9.8,0 z m 12.3,0 l 9.8,0 l 0,12 l -9.8,0 z m -37,14 l 9.9,0 l 0,12 l -9.9,0 z m 12.4,0 l 9.8,0 l 0,12 l -9.8,0 z m 24.6,0 l 9.8,0 l 0,12 l -9.8,0 z m -37,13 l 9.9,0 l 0,12 l -9.9,0 z m 12.4,0 l 9.8,0 l 0,12 l -9.8,0 z m 12.3,0 l 9.8,0 l 0,12 l -9.8,0 z m 12.3,0 l 9.8,0 l 0,12 l -9.8,0 z m -37,13 l 9.9,0 l 0,12 l -9.9,0 z m 12.4,0 l 9.8,0 l 0,12 l -9.8,0 z m 24.6,0 l 9.8,0 l 0,12 l -9.8,0 z m -37,13 l 9.9,0 l 0,12 l -9.9,0 z m 12.4,0 l 9.8,0 l 0,12 l -9.8,0 z m 12.3,0 l 9.8,0 l 0,12 l -9.8,0 z m 12.3,0 l 9.8,0 l 0,12 l -9.8,0 z m -37,14 l 9.9,0 l 0,12 l -9.9,0 z m 12.4,0 l 9.8,0 l 0,12 l -9.8,0 z m 12.3,0 l 9.8,0 l 0,12 l -9.8,0 z" />
    <path d="m 227.5,896.5 c -11.8,0 -22,2.7 -26.8,4.5 l 0,28.4 l 53.5,0 l 0,-28.4 c -4.8,-1.8 -14.9,-4.5 -26.7,-4.5 z m 0,6.1 c 3.7,0 7.4,0.3 10.7,0.8 l 0,5.9 c -3.3,-0.4 -7,-0.6 -10.7,-0.6 c -3.7,0 -7.4,0.2 -10.7,0.6 l 0,-5.9 c 3.3,-0.5 6.9,-0.8 10.7,-0.8 z m -12.5,1 l 0,6 c -5,0.7 -9.4,1.7 -12.4,2.6 l 0,-5.6 c 2.7,-0.9 7.1,-2.2 12.4,-3 z m 24.9,0 c 5.3,0.8 9.7,2.1 12.3,3 l 0,5.6 c -2.9,-0.9 -7.2,-1.9 -12.3,-2.6 z m -12.4,6.3 c 3.7,0 7.4,0.3 10.7,0.7 l 0,17.5 l -21.4,0 l 0,-17.5 c 3.3,-0.4 7,-0.7 10.7,-0.7 z m -12.5,0.9 l 0,17.3 l -12.4,0 l 0,-14.7 c 3,-0.9 7.4,-1.9 12.4,-2.6 z m 24.9,0 c 5.1,0.7 9.4,1.7 12.3,2.6 l 0,14.7 l -12.3,0 z" />
<animate attributeName="fill" from="#000" to="hsl(270,30%,60%)" begin="16s" dur="3s" fill="freeze" />
</g>
  	<animateTransform id="move12"
  						attributeName="transform"
                          attributeType="XML"
                          type="translate"
                          from="0 0"
                          to="0 -527"
                          dur="1.5s"
                          begin="move11.begin + 0.6s" 
                          fill="freeze"/>
  </g>
  <g id="g13" class="t14">
    <rect height="12.16" width="50.68" y="1120" x="875.9" style="fill:hsl(200,40%,20%)">
    <animate attributeName="fill" from="hsl(200,40%,20%)" to="orange" begin="move13.end + 1s" dur="1s" fill="freeze" />
    <animate attributeName="fill" from="orange" to="gray" begin="move13.end + 2.5s" dur="10s" fill="freeze" />
    </rect>
    <rect height="50.51" width="51.18" y="1069" x="876" style="fill:hsl(200,40%,20%)">
    <animate attributeName="fill" from="hsl(200,40%,20%)" to="orange" begin="move13.end + 1.5s" dur="1s" fill="freeze" />
    <animate attributeName="fill" from="orange" to="gray" begin="move13.end + 3s" dur="10s" fill="freeze" />
    </rect>
    <rect height="50.85" width="51.02" y="1018" x="876.2" style="fill:hsl(200,40%,20%)">
    <animate attributeName="fill" from="hsl(200,40%,20%)" to="orange" begin="move13.end + 2s" dur="1s" fill="freeze" />
    <animate attributeName="fill" from="orange" to="gray" begin="move13.end + 3.5s" dur="10s" fill="freeze" />
    </rect>
    <rect height="23.14" width="50" y="992" x="876.5" style="fill:hsl(200,40%,20%)">
    <animate attributeName="fill" from="hsl(200,40%,20%)" to="orange" begin="move13.end + 2.5s" dur="1s" fill="freeze" />
    <animate attributeName="fill" from="orange" to="gray" begin="move13.end + 4s" dur="10s" fill="freeze" />
    </rect>
    <rect height="9.798" width="46.79" y="978" x="878.6" style="fill:hsl(200,40%,20%)">
    <animate attributeName="fill" from="hsl(200,40%,20%)" to="orange" begin="move13.end + 3s" dur="1s" fill="freeze" />
    <animate attributeName="fill" from="orange" to="gray" begin="move13.end + 4.2s" dur="10s" fill="freeze" />
    </rect>
    <path d="m 913.6,950 a 8.997,4.349 0 0 0 -9,4 a 8.997,4.349 0 0 0 0.2,1 l -0.2,0 l 0,19 l 18,0 l 0,-19 l -0.2,0 a 8.997,4.349 0 0 0 0.2,-1 a 8.997,4.349 0 0 0 -9,-4 z" style="fill:hsl(200,40%,20%)">
    <animate attributeName="fill" from="hsl(200,40%,20%)" to="orange" begin="move13.end + 3.2s" dur="1s" fill="freeze" />
    <animate attributeName="fill" from="orange" to="gray" begin="move13.end + 4.4s" dur="10s" fill="freeze" />
    </path>
    <path d="m 890.2,949.9 a 8.997,4.349 0 0 0 -9,4.3 a 8.997,4.349 0 0 0 0.2,0.8 l -0.2,0 l 0,19 l 18,0 l 0,-19 l -0.2,0 a 8.997,4.349 0 0 0 0.2,-0.8 a 8.997,4.349 0 0 0 -9,-4.3 z" style="fill:hsl(200,40%,20%)">
     <animate attributeName="fill" from="hsl(200,40%,20%)" to="orange" begin="move13.end + 3.4s" dur="3s" fill="freeze" />
     <animate attributeName="fill" from="orange" to="gray" begin="move13.end + 4.6s" dur="10s" fill="freeze" />
    </path>
    <path d="m 890.2,892.9 l -0.5,31.4 c -1.1,0.3 -2,1.1 -2.2,2.3 c 0.9,-0.2 1.8,-0.3 2.8,-0.3 c 1,0 1.9,0.1 2.8,0.3 c -0.3,-1.2 -1.1,-2 -2.2,-2.3 z m 23.1,0 l -0.6,31.4 c -1.1,0.3 -1.9,1.1 -2.2,2.3 c 0.9,-0.2 1.8,-0.3 2.8,-0.3 c 1,0 1.9,0.1 2.8,0.3 c -0.3,-1.2 -1.1,-2 -2.2,-2.3 z m -23.1,33.8 c -0.9,0 -1.8,0.1 -2.7,0.4 l 1.2,2.8 c 0,0.1 0.2,0.2 0.4,0.2 l 0.1,0 l -6.8,18.9 c 2,-2 4.9,-3 7.9,-3 c 3,0 5.8,1 7.9,3 l -6.9,-18.9 l 0.1,0 c 0.2,0 0.4,-0.1 0.5,-0.2 l 1.2,-2.8 c -0.9,-0.3 -1.8,-0.4 -2.9,-0.4 z m 23.1,0 c -1,0 -1.9,0.1 -2.8,0.4 l 1.2,2.8 c 0.1,0.1 0.3,0.2 0.5,0.2 l 0.1,0 l -6.9,18.9 c 2.1,-2 4.9,-3 7.9,-3 c 3.1,0 5.8,1 7.9,3 l -6.8,-18.9 l 0.1,0 c 0.2,0 0.4,-0.1 0.5,-0.2 l 1.1,-2.8 c -0.8,-0.3 -1.8,-0.4 -2.8,-0.4 z m -23,20.3 c -6.1,0 -11,5 -11,11 l 0,17 l 22,0 l 0,-17 c 0,-6 -5,-11 -11,-11 z m 23,0 c -6.1,0 -11,5 -11,11 l 0,17 l 22,0 l 0,-17 c 0,-6 -4.9,-11 -11,-11 z m -23.1,3 c 1.4,0 2.8,1 3.9,1 l -2.4,4 l -1.5,0 l -1.4,0 l -2.3,-4 c 1.1,0 2.4,-1 3.8,-1 z m 23.1,0 c 1.4,0 2.7,1 3.8,1 l -2.3,4 l -1.5,0 l -1.4,0 l -2.4,-4 c 1.1,0 2.5,-1 3.8,-1 z m -28.5,2 l 2.4,4 c -0.6,0 -1,1 -1.1,2 l -4.1,0 c 0,-2 1.1,-4 2.8,-6 z m 23.1,0 l 2.3,4 c -0.5,0 -0.9,1 -1.1,2 l -4,0 c 0,-2 1,-4 2.8,-6 z m -12.2,0 c 1.7,2 2.8,4 2.8,6 l -4,0 c -0.2,-1 -0.6,-2 -1.1,-2 z m 23.1,0 c 1.7,2 2.8,4 2.8,6 l -4.1,0 c -0.1,-1 -0.5,-2 -1.1,-2 z m -36.9,8 l 7.4,0 l 0,12 l -7.4,0 z m 9.4,0 l 7.2,0 l 0,12 l -7.2,0 z m 13.7,0 l 7.3,0 l 0,12 l -7.3,0 z m 9.3,0 l 7.3,0 l 0,12 l -7.3,0 z m -37.6,16 l 0,13 l 50.1,0 l 0,-13 z m 2.9,3 l 6.6,0 l 0,8 l -6.6,0 z m 9.5,0 l 6.5,0 l 0,8 l -6.5,0 z m 9.4,0 l 6.6,0 l 0,8 l -6.6,0 z m 9.5,0 l 6.6,0 l 0,8 l -6.6,0 z m 9.4,0 l 6.6,0 l 0,8 l -6.6,0 z m -42.2,11 l 0,348 l 53.2,0 l 0,-348 z m 3,3 l 13,0 l 0,5 l -13,0 z m 14.9,0 l 17.4,0 l 0,5 l -17.4,0 z m 19.3,0 l 12.9,0 l 0,5 l -12.9,0 z m -34.2,7 l 13,0 l 0,14 l -13,0 z m 14.9,0 l 17.4,0 l 0,14 l -17.4,0 z m 19.3,0 l 12.9,0 l 0,14 l -12.9,0 z m -34.2,18 l 8.1,0 l 0,10 l -8.1,0 z m 9.8,0 l 8,0 l 0,10 l -8,0 z m 9.8,0 l 8,0 l 0,10 l -8,0 z m 9.8,0 l 8,0 l 0,10 l -8,0 z m 9.7,0 l 8,0 l 0,10 l -8,0 z m -39.1,13 l 8.1,0 l 0,10 l -8.1,0 z m 19.6,0 l 8,0 l 0,10 l -8,0 z m 9.8,0 l 8,0 l 0,10 l -8,0 z m 9.7,0 l 8,0 l 0,10 l -8,0 z m -39.1,13 l 8.1,0 l 0,10 l -8.1,0 z m 9.8,0 l 8,0 l 0,10 l -8,0 z m 29.3,0 l 8,0 l 0,10 l -8,0 z m -29.3,13 l 8,0 l 0,10 l -8,0 z m 9.8,0 l 8,0 l 0,10 l -8,0 z m 9.8,0 l 8,0 l 0,10 l -8,0 z m 9.7,0 l 8,0 l 0,10 l -8,0 z m -39.1,13 l 8.1,0 l 0,10 l -8.1,0 z m 9.8,0 l 8,0 l 0,10 l -8,0 z m 9.8,0 l 8,0 l 0,10 l -8,0 z m 19.5,0 l 8,0 l 0,10 l -8,0 z m -39.1,12 l 8.1,0 l 0,11 l -8.1,0 z m 19.6,0 l 8,0 l 0,11 l -8,0 z m 9.8,0 l 8,0 l 0,11 l -8,0 z m 9.7,0 l 8,0 l 0,11 l -8,0 z m -39.1,13 l 8.1,0 l 0,11 l -8.1,0 z m 9.8,0 l 8,0 l 0,11 l -8,0 z m 9.8,0 l 8,0 l 0,11 l -8,0 z m -19.6,13 l 8.1,0 l 0,10 l -8.1,0 z m 9.8,0 l 8,0 l 0,10 l -8,0 z m 9.8,0 l 8,0 l 0,10 l -8,0 z m 9.8,0 l 8,0 l 0,10 l -8,0 z m 9.7,0 l 8,0 l 0,10 l -8,0 z m -39.1,13 l 8.1,0 l 0,10 l -8.1,0 z m 9.8,0 l 8,0 l 0,10 l -8,0 z m 19.6,0 l 8,0 l 0,10 l -8,0 z m 9.7,0 l 8,0 l 0,10 l -8,0 z">
    <animate attributeName="fill" from="#000" to="hsl(190,40%,70%)" begin="16s" dur="3s" fill="freeze" />
    </path>
  	<animateTransform id="move13" attributeName="transform"
                          attributeType="XML"
                          type="translate"
                          from="0 0"
                          to="0 -616"
                          dur="1s" 
                          begin="move12.begin + 1s"
                          fill="freeze"/>
  </g>
  <g id="g14" class="t12">
    <rect height="10.92" width="11.02" y="921.6" x="795.2" style="fill:hsl(200,40%,20%)">
    <animate attributeName="fill" from="hsl(200,40%,20%)" to="orange" begin="move14.end + 1s" dur="3s" fill="freeze" />
    <animate attributeName="fill" from="orange" to="darkslategray" begin="move14.end + 3s" dur="10s" fill="freeze" />
    </rect>
    <rect height="21.9" width="18.28" y="932.9" x="791.7" style="fill:hsl(200,40%,20%)">
    <animate attributeName="fill" from="hsl(200,40%,20%)" to="orange" begin="move14.end + 1.4s" dur="3s" fill="freeze" />
    <animate attributeName="fill" from="orange" to="darkslategray" begin="move14.end + 3.4s" dur="10s" fill="freeze" />
    </rect>
    <rect height="23.96" width="23.19" y="994" x="789.5" style="fill:hsl(200,40%,20%)">
    <animate attributeName="fill" from="hsl(200,40%,20%)" to="orange" begin="move14.end + 1.8s" dur="3s" fill="freeze" />
    <animate attributeName="fill" from="orange" to="darkslategray" begin="move14.end + 4s" dur="10s" fill="freeze" />
    </rect>
    <rect ry="0" height="12.63" width="23.19" y="1019" x="789.3" style="fill:hsl(200,40%,20%)">
    <animate attributeName="fill" from="hsl(200,40%,20%)" to="orange" begin="move14.end + 2.2s" dur="3s" fill="freeze" />
    <animate attributeName="fill" from="orange" to="darkslategray" begin="move14.end + 4.2s" dur="10s" fill="freeze" />
    </rect>
    <path d="m 800.8,893.5 l -0.7,21.9 c -1,0.5 -1.8,1.9 -2.1,3.8 c -1.8,0.3 -3.1,1 -4.6,1.7 l -6.1,36.1 c 3.9,1 8.5,1 13.5,1 c 4.9,0 9.5,0 13.3,-1 l -6,-36.1 c -1.6,-0.7 -3.3,-1.5 -4.7,-1.7 c -0.2,-1.9 -1.1,-3.3 -2,-3.8 l -0.6,-21.9 z m -0.5,28.9 l 0,4 l -4.2,0 a 4.709,4.709 0 0 1 4.2,-4 z m 0.9,0 a 4.709,4.709 0 0 1 4.1,4 l -4.1,0 l 0,-4 z m -5.2,5 l 4.3,0 l 0,4.4 a 4.709,4.709 0 0 1 -4.3,-4.4 z m 5.2,0 l 4.2,0 a 4.709,4.709 0 0 1 -4.2,4.4 l 0,-4.4 z m -1.2,6.8 l 0,6.8 l -6.2,0 c 0.6,-3.5 3.1,-6.4 6.2,-6.8 z m 1.4,0 c 3.2,0.4 5.7,3.3 6.2,6.8 l -6.2,0 l 0,-6.8 z m -7.6,7.8 l 6.2,0 l 0,11 l -7.5,0 l 1.3,-11 z m 7.6,0 l 6.3,0 l 1.2,11 l -7.5,0 l 0,-11 z m -13.6,17 l 0,410 l 25.8,0 l 0,-410 l -25.8,0 z m 12.2,36 l 0,10 l -8.6,0 l 0,-2 l 0.1,0 c 0.5,-4 4,-7 8.5,-8 z m 1.5,0 c 4.4,1 8,4 8.5,8 l 0.1,0 l 0,2 l -8.6,0 l 0,-10 z m -10.2,11 l 8.7,0 l 0,11 l -1.7,0 l -4.2,0 l -3.1,0 l 0.3,-11 z m 10.2,0 l 8.6,0 l 0.4,11 l -3.2,0 l -4.1,0 l -0.1,0 l -1.6,0 l 0,-11 z m -9.3,14 c 0.7,0 1.4,1 1.4,1 l 0,2 l 0,3 l 0,2 c 0,0 -0.7,1 -1.4,1 c -0.7,0 -1.3,-1 -1.3,-1 l 0,-2 l 0,-3 l 0,-2 c 0,0 0.6,-1 1.3,-1 z m 4.3,0 c 0.7,0 1.3,1 1.4,1 l 0,2 l 0,3 l 0,2 c -0.1,0 -0.7,1 -1.4,1 c -0.8,0 -1.3,-1 -1.3,-1 l 0,-2 l 0,-3 l 0,-2 c 0,0 0.5,-1 1.3,-1 z m 4.3,0 c 0.7,0 1.3,1 1.3,1 l 0,2 l 0,3 l 0,2 c 0,0 -0.6,1 -1.3,1 c -0.8,0 -1.4,-1 -1.4,-1 l 0,-2 l 0,-3 l 0,-2 c 0,0 0.6,-1 1.4,-1 z m 4.2,0 c 0.7,0 1.3,1 1.3,1 l 0,2 l 0,3 l 0,2 c 0,0 -0.6,1 -1.3,1 c -0.7,0 -1.4,-1 -1.4,-1 l 0,-2 l 0,-3 l 0,-2 c 0,0 0.7,-1 1.4,-1 z m 4.2,0 c 0.8,0 1.4,1 1.4,1 l 0,2 l 0,3 l 0,2 c 0,0 -0.6,1 -1.4,1 c -0.7,0 -1.3,-1 -1.3,-1 l 0,-2 l 0,-3 l 0,-2 c 0,0 0.6,-1 1.3,-1 z">
    <animate attributeName="fill" from="#000" to="hsl(190,20%,70%)" begin="16s" dur="3s" fill="freeze" />
    </path>
    <g id="uhr" transform="translate(0,-60)">
      <circle cy="1033" cx="800.6" r="12.71" id="circle17160" style="fill:#ffffff" />
      <circle cy="1033" cx="800.6" r="1.26" id="circle17162" style="fill:#552200" />
      <path d="m 800.6,1021 l 0,2 l 0,-2 z m 0,22 l 0,2 l 0,-2 z" style="fill:none;stroke:#552200;stroke-width:1px" />
      <path d="m 806.6,1023 l -1,1 l 1,-1 z m -11,19 l -1,1 l 1,-1 z" style="fill:none;stroke:#552200;stroke-width:1px" />
      <path d="m 810.8,1027 l -1.4,1 l 1.4,-1 z m -19,11 l -1.4,1 l 1.4,-1 z" style="fill:none;stroke:#552200;stroke-width:1px" />
      <path d="m 812.4,1033 l -1.7,0 l 1.7,0 z m -21.9,0 l -1.7,0 l 1.7,0 z" style="fill:none;stroke:#552200;stroke-width:1px" />
      <path d="m 810.8,1039 l -1.5,-1 l 1.5,1 z m -18.9,-11 l -1.5,-1 l 1.5,1 z" style="fill:none;stroke:#552200;stroke-width:1px" />
      <path d="m 806.4,1043 l -0.8,-1 l 0.8,1 z m -10.8,-19 l -0.8,-1 l 0.8,1 z" style="fill:none;stroke:#552200;stroke-width:1px" />
      <path d="m 800.6,1026 l 0,7" style="fill:#552200;stroke:#552200;stroke-width:1px" />
      <path d="m 800.6,1025 l 1.3,2 l -2.6,0 z" style="fill:#552200" />
      <path d="m 800.5,1033 l -9.7,0" style="fill:none;stroke:#552200;stroke-width:0.6">
      	<animateTransform 
      repeatCount="indefinite"
      attributeName="transform" type="rotate"
      from="0 800 1033" to="360 800 1033" begin="0" dur="60s" />
      </path>
    </g>
  	<animateTransform id="move14" attributeName="transform"
                          attributeType="XML"
                          type="translate"
                          from="0 0"
                          to="0 -650"
                          dur="0.8s"
                          begin="move13.begin + 0.1s"
                          fill="freeze"/>
  </g>
  <g id="g15" class="t5">
    <rect height="54.69" width="30.94" y="988" x="345.3" style="fill:hsl(200,40%,20%)">
    	<animate attributeName="fill" from="hsl(200,40%,20%)" to="orange" begin="move15.end + 1s" dur="4s" fill="freeze" />
    	<animate attributeName="fill" from="orange" to="silver" begin="12s" dur="10s" fill="freeze" />
    </rect>
    <rect height="26.53" width="30.94" y="961" x="345.3" style="fill:hsl(200,40%,20%)">
    	<animate attributeName="fill" from="hsl(200,40%,20%)" to="orange" begin="move15.end + 1.5s" dur="3s" fill="freeze" />
    	<animate attributeName="fill" from="orange" to="silver" begin="12s" dur="10s" fill="freeze" />
    </rect>
    <rect height="12.94" width="21.4" y="948" x="345" style="fill:hsl(200,40%,20%)">
    	<animate attributeName="fill" from="hsl(200,40%,20%)" to="orange" begin="move15.end + 2s" dur="3s" fill="freeze" />
    	<animate attributeName="fill" from="orange" to="silver" begin="12s" dur="10s" fill="freeze" />
    </rect>
    <rect height="3.747" width="38.68" y="937.8" x="341" style="fill:hsl(200,40%,20%)">
    	<animate attributeName="fill" from="hsl(200,40%,20%)" to="orange" begin="move15.end + 2.5s" dur="1s" fill="freeze" />
    	<animate attributeName="fill" from="orange" to="silver" begin="12s" dur="10s" fill="freeze" />
    </rect>
    <rect height="7.008" width="15" y="913.1" x="353.4" style="fill:hsl(200,40%,20%)">
    	<animate attributeName="fill" from="hsl(200,40%,20%)" to="orange" begin="move15.end + 3s" dur="1s" fill="freeze" />
    	<animate attributeName="fill" from="orange" to="silver" begin="12s" dur="10s" fill="freeze" />
    </rect>
    <rect height="13.77" width="27.06" y="920.3" x="347.2" style="fill:hsl(200,40%,20%)">
    	<animate attributeName="fill" from="hsl(200,40%,20%)" to="orange" begin="move15.end + 3.5s" dur="7s" fill="freeze" />
    	<animate attributeName="fill" from="orange" to="silver" begin="12s" dur="10s" fill="freeze" />
    </rect>
    <rect height="12.94" width="9.735" y="948" x="366.5" style="fill:hsl(200,40%,20%)">
    	<animate attributeName="fill" from="hsl(200,40%,20%)" to="orange" begin="move15.end + 6s" dur="0.5s" fill="freeze" />
    	<animate attributeName="fill" from="orange" to="silver" begin="12s" dur="10s" fill="freeze" />
    </rect>
    <path d="m 360.9,893.1 c -1.1,0 -1.9,1 -1.9,2.2 l 0,13.4 c -4.5,0.8 -7.8,6.1 -8.1,10.7 l -0.7,0 l -0.7,0 c -2.5,0.3 -4.4,2.4 -4.4,5.1 l 0,10.9 l 31.5,0 l 0,-10.9 c 0,-2.7 -1.9,-4.8 -4.5,-5.1 l -0.6,0 l -0.8,0 c -0.2,-4.6 -3.6,-9.9 -8.1,-10.7 l 0,-13.4 c 0,-1.2 -0.7,-2.2 -1.7,-2.2 z m -0.5,20.1 l 0,6.2 l -6.8,0 c 0.6,-3.4 3.4,-6 6.8,-6.2 z m 0.9,0 c 3.5,0.2 6.2,2.8 6.7,6.2 l -6.7,0 z m -10.3,7.7 l 3.6,0 l 0,2.6 l -5.7,0 c 0.1,-1.4 0.9,-2.2 2.1,-2.6 z m 4.5,0 l 10.7,0 l 0,2.6 l -10.7,0 z m 11.6,0 l 3.6,0 c 1.1,0.4 2,1.2 2,2.6 l -5.6,0 z m -18.2,3.5 l 5.7,0 l 0,7.7 l -5.7,0 z m 6.6,0 l 10.7,0 l 0,7.7 l -10.7,0 z m 11.6,0 l 5.6,0 l 0,7.7 l -5.6,0 z M 341,936.1 c -1.4,0 -2.4,0.9 -2.4,2.1 l 0,2.8 c 0,1 1,2 2.4,2 l 39.6,0 c 1.4,0 2.6,-1 2.6,-2 l 0,-2.8 c 0,-1.2 -1.2,-2.1 -2.6,-2.1 z m 3.2,2.2 c 1,0 1.7,0.6 1.7,1.3 c 0,0.4 -0.7,1.4 -1.7,1.4 c -0.9,0 -1.7,-1 -1.7,-1.4 c 0,-0.7 0.8,-1.3 1.7,-1.3 z m 5.5,0 c 0.9,0 1.8,0.6 1.8,1.3 c 0,0.4 -0.9,1.4 -1.8,1.4 c -0.9,0 -1.7,-1 -1.7,-1.4 c 0,-0.7 0.8,-1.3 1.7,-1.3 z m 5.6,0 c 0.9,0 1.7,0.6 1.7,1.3 c 0,0.4 -0.8,1.4 -1.7,1.4 c -0.9,0 -1.7,-1 -1.7,-1.4 c 0,-0.7 0.8,-1.3 1.7,-1.3 z m 5.6,0 c 0.9,0 1.6,0.6 1.6,1.3 c 0,0.4 -0.7,1.4 -1.6,1.4 c -1,0 -1.8,-1 -1.8,-1.4 c 0,-0.7 0.8,-1.3 1.8,-1.3 z m 5.4,0 c 1,0 1.8,0.6 1.8,1.3 c 0,0.4 -0.8,1.4 -1.8,1.4 c -0.9,0 -1.6,-1 -1.6,-1.4 c 0,-0.7 0.7,-1.3 1.6,-1.3 z m 5.6,0 c 0.9,0 1.7,0.6 1.7,1.3 c 0,0.4 -0.8,1.4 -1.7,1.4 c -0.9,0 -1.7,-1 -1.7,-1.4 c 0,-0.7 0.8,-1.3 1.7,-1.3 z m 5.6,0 c 0.9,0 1.7,0.6 1.7,1.3 c 0,0.4 -0.8,1.4 -1.7,1.4 c -0.9,0 -1.8,-1 -1.8,-1.4 c 0,-0.7 0.9,-1.3 1.8,-1.3 z m -34.9,5.7 l 0,358 l 36.5,0 l 0,-358 z m 5.5,5 l 0.2,0 l 3.9,0 c 1.2,0 2.2,1 2.2,2 l 0,9 l -8.3,0 l 0,-9 c 0,-1 0.9,-2 2,-2 z m 10.7,0 l 0.1,0 l 3.9,0 c 1.2,0 2.1,1 2.1,2 l 0,9 l -8.2,0 l 0,-9 c 0,-1 0.9,-2 2.1,-2 z m 10.6,0 l 0.1,0 l 3.9,0 c 1.2,0 2.1,1 2.1,2 l 0,9 l -8.2,0 l 0,-9 c 0,-1 0.9,-2 2.1,-2 z m -21.3,13 l 0.2,0 l 3.9,0 c 1.2,0 2.2,1 2.2,2 l 0,10 l -8.3,0 l 0,-10 c 0,-1 0.9,-2 2,-2 z m 10.6,0 l 0.2,0 l 3.9,0 c 1.2,0 2.1,1 2.1,2 l 0,10 l -8.2,0 l 0,-10 c 0,-1 0.9,-2 2,-2 z m 10.7,0 l 0.1,0 l 3.9,0 c 1.2,0 2.1,1 2.1,2 l 0,10 l -8.2,0 l 0,-10 c 0,-1 0.9,-2 2.1,-2 z m -21.3,14 l 0.2,0 l 3.9,0 c 1.2,0 2.2,1 2.2,2 l 0,9 l -8.3,0 l 0,-9 c 0,-1 0.9,-2 2,-2 z m 10.6,0 l 0.2,0 l 3.9,0 c 1.2,0 2.1,1 2.1,2 l 0,9 l -8.2,0 l 0,-9 c 0,-1 0.9,-2 2,-2 z m 10.7,0 l 0.1,0 l 3.9,0 c 1.2,0 2.1,1 2.1,2 l 0,9 l -8.2,0 l 0,-9 c 0,-1 0.9,-2 2.1,-2 z m -21.3,13 l 0.2,0 l 3.9,0 c 1.2,0 2.2,1 2.2,2 l 0,10 l -8.3,0 l 0,-10 c 0,-1 0.9,-2 2,-2 z m 10.6,0 l 0.2,0 l 3.9,0 c 1.2,0 2.1,1 2.1,2 l 0,10 l -8.2,0 l 0,-10 c 0,-1 0.9,-2 2,-2 z m 10.7,0 l 0.1,0 l 3.9,0 c 1.2,0 2.1,1 2.1,2 l 0,10 l -8.2,0 l 0,-10 c 0,-1 0.9,-2 2.1,-2 z m -21.3,14 l 0.2,0 l 3.9,0 c 1.1,0 2.2,1 2.2,2 l 0,10 l -8.3,0 l 0,-10 c 0,-1 0.9,-2 2,-2 z m 10.6,0 l 0.2,0 l 3.9,0 c 1.2,0 2.1,1 2.1,2 l 0,10 l -8.2,0 l 0,-10 c 0,-1 0.9,-2 2,-2 z m 10.7,0 l 0.1,0 l 3.9,0 c 1.2,0 2.1,1 2.1,2 l 0,10 l -8.2,0 l 0,-10 c 0,-1 0.9,-2 2.1,-2 z m -21.3,13 l 0.2,0 l 3.9,0 c 1.1,0 2.2,1 2.2,2 l 0,10 l -8.3,0 l 0,-10 c 0,-1 0.9,-2 2,-2 z m 10.6,0 l 0.2,0 l 3.9,0 c 1.2,0 2.1,1 2.1,2 l 0,10 l -8.2,0 l 0,-10 c 0,-1 0.9,-2 2,-2 z m 10.7,0 l 0.1,0 l 3.9,0 c 1.2,0 2.1,1 2.1,2 l 0,10 l -8.2,0 l 0,-10 c 0,-1 0.9,-2 2.1,-2 z m -21.3,14 l 0.2,0 l 3.9,0 c 1.1,0 2.2,1 2.2,2 l 0,10 l -8.3,0 l 0,-10 c 0,-1 0.9,-2 2,-2 z m 10.6,0 l 0.2,0 l 3.9,0 c 1.2,0 2.1,1 2.1,2 l 0,10 l -8.2,0 l 0,-10 c 0,-1 0.9,-2 2,-2 z m 10.7,0 l 0.1,0 l 3.9,0 c 1.2,0 2.1,1 2.1,2 l 0,10 l -8.2,0 l 0,-10 c 0,-1 0.9,-2 2.1,-2 z">
    <animate attributeName="fill" from="#000" to="hsl(270,40%,70%)" begin="12s" dur="3s" fill="freeze" />
    </path>
  	<animateTransform id="move15" attributeName="transform"
                          attributeType="XML"
                          type="translate"
                          from="0 0"
                          to="0 -580"
                          dur="2s" 
                          fill="freeze"/>
  </g>
  <g id="g16" class="t6">
    <path d="m 398.4,934.5 l 65.5,0 l -5.7,16.5 l -54.7,0 z" style="fill:hsl(200,40%,20%)">
    	<animate attributeName="fill" from="hsl(200,40%,20%)" to="orange" begin="move6.end + 1s" dur="0.5s" fill="freeze" />
    	<animate attributeName="fill" from="orange" to="white" begin="12s" dur="10s" fill="freeze" />
    </path>
    <rect height="173.6" width="10.19" y="962" x="425.7" style="fill:hsl(200,40%,20%)">
    	<animate attributeName="fill" from="hsl(200,40%,20%)" to="orange" begin="move6.end + 1s" dur="2s" fill="freeze" />
    	<animate attributeName="fill" from="orange" to="white" begin="12s" dur="10s" fill="freeze" />
    </rect>
    <path d="m 430.7,893.1 l -1.3,23.5 c -3.8,0.5 -6.9,3 -7.6,6.1 c 2.9,-0.4 5.9,-0.6 8.9,-0.6 c 3.2,0 6.1,0.2 8.9,0.6 c -0.6,-3.1 -3.7,-5.6 -7.6,-6.1 z m 0,29.9 c -15.6,0 -28.6,3.7 -31,8.6 l 62,0 c -2.3,-4.9 -15.3,-8.6 -31,-8.6 z m -33.1,9.4 c -1.7,0 -3.7,0.9 -3.2,2.1 l 9.4,19.5 c 0.5,1 1.4,2 3,2 l 20.4,0 l 7.2,0 l 20.3,0 c 1.7,0 2.6,-1 3.1,-2 l 9.2,-19.5 c 0.6,-1.2 -1.3,-2.1 -3,-2.1 l -29.6,0 l -7.2,0 z m 4.9,3.6 l 4.8,0 l 3.2,12 l -4.1,0 c -1.3,0 -2.1,0 -2.5,-1 l -4.1,-9.2 c -0.4,-0.9 1.2,-1.8 2.7,-1.8 z m 6.9,0 l 11.4,0 l 0.7,12 l -8.9,0 z m 13.4,0 l 2.4,0 l 11.1,0 l 2.4,0 l -0.7,12 l -1.7,0 l -11.1,0 l -1.7,0 z m 17.9,0 l 11.4,0 l -3.1,12 l -9,0 z m 13.5,0 l 4.8,0 c 1.5,0 3.1,0.9 2.6,1.8 l -3.9,9.2 c -0.4,1 -1.2,1 -2.7,1 l -4,0 z m -32.5,21 l 0,413 l 7.4,0 l 3.3,0 l 7.4,0 l 0,-413 z m 7.3,7 l 3.5,0 c 0.8,0 1.5,1 1.5,2 l 0,9 c 0,1 -0.7,2 -1.5,2 l -3.5,0 c -0.9,0 -1.4,-1 -1.4,-2 l 0,-9 c 0,-1 0.5,-2 1.4,-2 z m 0,16 l 3.5,0 c 0.8,0 1.5,1 1.5,2 l 0,8 c 0,1 -0.7,2 -1.5,2 l -3.5,0 c -0.9,0 -1.4,-1 -1.4,-2 l 0,-8 c 0,-1 0.5,-2 1.4,-2 z m 0,16 l 3.5,0 c 0.8,0 1.5,1 1.5,2 l 0,8 c 0,1 -0.7,2 -1.5,2 l -3.5,0 c -0.9,0 -1.4,-1 -1.4,-2 l 0,-8 c 0,-1 0.5,-2 1.4,-2 z m 0,15 l 3.5,0 c 0.8,0 1.5,1 1.5,2 l 0,9 c 0,1 -0.7,2 -1.5,2 l -3.5,0 c -0.9,0 -1.4,-1 -1.4,-2 l 0,-9 c 0,-1 0.5,-2 1.4,-2 z m 0,16 l 3.5,0 c 0.8,0 1.5,1 1.5,2 l 0,8 c 0,2 -0.7,2 -1.5,2 l -3.5,0 c -0.9,0 -1.4,0 -1.4,-2 l 0,-8 c 0,-1 0.5,-2 1.4,-2 z m 0,16 l 3.5,0 c 0.8,0 1.5,1 1.5,2 l 0,8 c 0,1 -0.7,2 -1.5,2 l -3.5,0 c -0.9,0 -1.4,-1 -1.4,-2 l 0,-8 c 0,-1 0.5,-2 1.4,-2 z m 0,16 l 3.5,0 c 0.8,0 1.5,0 1.5,1 l 0,9 c 0,1 -0.7,2 -1.5,2 l -3.5,0 c -0.9,0 -1.4,-1 -1.4,-2 l 0,-9 c 0,-1 0.5,-1 1.4,-1 z m 0,15 l 3.5,0 c 0.8,0 1.5,1 1.5,2 l 0,9 c 0,1 -0.7,1 -1.5,1 l -3.5,0 c -0.9,0 -1.4,0 -1.4,-1 l 0,-9 c 0,-1 0.5,-2 1.4,-2 z m 0,16 l 3.5,0 c 0.8,0 1.5,1 1.5,2 l 0,8 c 0,1 -0.7,2 -1.5,2 l -3.5,0 c -0.9,0 -1.4,-1 -1.4,-2 l 0,-8 c 0,-1 0.5,-2 1.4,-2 z m 0,16 l 3.5,0 c 0.8,0 1.5,1 1.5,2 l 0,8 c 0,1 -0.7,2 -1.5,2 l -3.5,0 c -0.9,0 -1.4,-1 -1.4,-2 l 0,-8 c 0,-1 0.5,-2 1.4,-2 z m 0,15 l 3.5,0 c 0.8,0 1.5,1 1.5,2 l 0,9 c 0,1 -0.7,2 -1.5,2 l -3.5,0 c -0.9,0 -1.4,-1 -1.4,-2 l 0,-9 c 0,-1 0.5,-2 1.4,-2 z">
    	<animate attributeName="fill" from="#000" to="hsl(120,30%,70%)" begin="12s" dur="3s" fill="freeze" />
    </path>
  	<animateTransform id="move16" attributeName="transform"
                          attributeType="XML"
                          type="translate"
                          from="0 0"
                          to="0 -650"
                          dur="2s" 
                          fill="freeze"/>
  </g>
  <g id="g17" class="t7">
    <rect height="67.05" width="30.4" y="998" x="490.1" style="fill:hsl(200,40%,20%)">
    	<animate id="fill171" attributeName="fill" from="hsl(200,40%,20%)" to="orange" begin="move17.end + 1s" dur="0.5s" fill="freeze" />
    	<animate attributeName="fill" from="orange" to="gray" begin="move17.end + 12s" dur="10s" fill="freeze" />
    </rect>
    <path d="m 489.9,965 l 30.7,-16 l 0,49 l -30.7,0 z" style="fill:hsl(200,40%,20%)">
    	<animate id="fill172" attributeName="fill" from="hsl(200,40%,20%)" to="orange" begin="move17.end + 2s" dur="0.5s" fill="freeze" />
    	<animate attributeName="fill" from="orange" to="gray" begin="move17.end + 12s" dur="10s" fill="freeze" />
    </path>
    <path d="m 501.6,919.1 l 19.3,-11.6 l 0,39.5 l -19.3,9 z" style="fill:hsl(200,40%,20%)">
    	<animate id="fill173" attributeName="fill" from="hsl(200,40%,20%)" to="orange" begin="move17.end + 3s" dur="0.5s" fill="freeze" />
    	<animate attributeName="fill" from="orange" to="gray" begin="move17.end + 12s" dur="10s" fill="freeze" />
    </path>
    <path d="m 521.4,902.4 l 0,39.6 l 0,8 l 0,360 l -32.2,0 l 0,-346 l 11.3,-8 l 0,-38.5 z m -1.8,8.4 l -4.2,2.1 l 0,11.8 l 4.2,0 z m -5.5,2.8 l -6.3,3.1 l 0,8 l 6.3,0 z m -7.6,3.8 l -4.2,2.1 l 0,5.2 l 4.2,0 z m 13.1,8.6 l -4.2,0 l 0,20 l 4.2,-3 z m -5.5,0 l -6.3,0 l 0,25 l 6.3,-4 z m -7.6,0 l -4.2,0 l 0,29 l 4.2,-3 z m 13.1,25 l -7.7,4 l 0,18 l 7.7,0 z m -9.1,5 l -10,5 l 0,12 l 10,0 z m -11.3,6 l -8.2,5 l 0,6 l 8.2,0 z m 20.4,12 l -7.7,0 l 0,22 l 7.7,0 z m -9.1,0 l -10,0 l 0,22 l 10,0 z m -11.3,0 l -8.2,0 l 0,22 l 8.2,0 z m 20.3,25 l -5,0 l 0,6 l 5,0 z m -6.4,0 l -15.6,0 l 0,6 l 15.6,0 z m -17,0 l -5,0 l 0,6 l 5,0 z m 17,7 l -5.1,0 l 0,7 l 5.1,0 z m -6.4,0 l -15.6,0 l 0,7 l 15.6,0 z m 12.8,8 l -15.5,0 l 0,7 l 15.5,0 z m -23.4,0 l -5,0 l 0,7 l 5,0 z m 23.4,8 l -5,0 l 0,6 l 5,0 z m -6.4,0 l -15.6,0 l 0,6 l 15.6,0 z m -17,0 l -5,0 l 0,6 l 5,0 z m 6.5,8 l -5.1,0 l 0,6 l 5.1,0 z m -6.5,0 l -5,0 l 0,6 l 5,0 z m 23.4,7 l -15.5,0 l 0,7 l 15.5,0 z m -16.9,0 l -5.1,0 l 0,7 l 5.1,0 z m -6.5,0 l -5,0 l 0,7 l 5,0 z m 23.4,8 l -5,0 l 0,7 l 5,0 z m -6.4,0 l -15.6,0 l 0,7 l 15.6,0 z m 0,8 l -5.1,0 l 0,6 l 5.1,0 z m -6.4,0 l -15.6,0 l 0,6 l 15.6,0 z">
    <animate attributeName="fill" from="#000" to="hsl(90,40%,60%)" begin="12s" dur="3s" fill="freeze" />
    </path>
  	<animateTransform id="move17" attributeName="transform"
                          attributeType="XML"
                          type="translate"
                          from="0 0"
                          to="0 -588"
                          dur="2s" 
                          fill="freeze"/>
  </g>
</g>
</svg>