<?xml version="1.0" encoding="utf-8"?>
<!-- Generator: Adobe Illustrator 23.0.0, SVG Export Plug-In . SVG Version: 6.00 Build 0)  -->
<svg version="1.1" xmlns="http://www.w3.org/2000/svg" xmlns:xlink="http://www.w3.org/1999/xlink" x="0px" y="0px"
   viewBox="0 0 1500 1500" style="enable-background:new 0 0 1500 1500;" xml:space="preserve">
<style type="text/css">
  .st0{fill:#A5EFEF;}
  .st1{opacity:0.77;fill:#FBF9F9;}
  .st2{fill:#FFB3A4;}
  .st3{fill:#515E9E;}
  .st4{fill:#FF9292;}
  .st5{fill:#FFC494;}
  .st6{fill:#FFFC97;}
  .st7{fill:#9CFF99;}
  .st8{fill:#99FFFC;}
  .st9{fill:#9E99FF;}
  .st10{fill:#F799FF;}
  .st11{fill:#FFFC97;stroke:#515E9E;stroke-width:12;stroke-linecap:round;stroke-linejoin:round;stroke-miterlimit:10;}
  .st12{fill:#EFEA95;}
  .st13{fill:#F6F6F6;}
</style>
<g id="Layer_2">
</g>
<g id="Layer_1">
  <path class="st0" d="M718.8,425.1c-105,17-238,156-152.4,328.8c12.7,25.7,25.8,45.9,38.9,62.2l-11.5-10.3c0,0-15.4,8.9-48.2,49.7
    c-17,21.2-41,6.6-49,28.6s74.3,92.9,177.6-6l-11.2-10c18.8,12.2,36.7,20.9,52.6,31.6L699.3,881c0,0-35.7-61.8,23.1-99.2
    c0,0,104.3-36.5,128.8,43.5c14.4,47.2-2.1,148.8-22.1,192.5c-13.9,30.3-30.6,44.8-54.2,28.5c-7.3,23.1-21.7,42.8-21.7,42.8
    s-35.3-40.7-78-50s-48.7,2.7-72.7-14.7c-24-17.3-34-36-39.3-11.3c-5.3,24.7-8.5,122.8,68,141.3c60.7,14.7,92.7,0.7,92.7,0.7
    s-32,48-2.7,104.7c0,0,38.8,70.1,132.7,63.3c13.6-1-14.7-22.6-12.7-34.7c2-12.1,26-134-26-150c41.3-40.7,124.7-63.3,184.7-215.3
    S1040.2,373.1,718.8,425.1z"/>
  <g>
    <path class="st1" d="M929.8,484.7c-29.3-18.9-35.3-33-35.3-33c-35.8-17.1-74.3-27.3-74.3-27.3s-11,28.8,16.3,43.5
      c0,0-3.5,3.7-1.7,9.3c-6.8,1.2-12,7.2-12,14.3c0,8.1,6.5,14.6,14.6,14.6c7.7,0,13.9-5.9,14.5-13.4c3.7,1.9,8,3.8,13.3,5.8
      c10.7,4,17.9,24.4,24.7,28c20.2,10.7,27-27.3,50-9.3c8.8,6.9,4.2,23.1,8.7,31.3c11.1,20.3,23.2,33.2,32.7,39.3
      c13.3,8.7,17.8,0,17.8,0S959.1,503.5,929.8,484.7z"/>
    
      <ellipse transform="matrix(0.9487 -0.3162 0.3162 0.9487 -128.3175 317.2484)" class="st1" cx="913.3" cy="554" rx="14.6" ry="14.6"/>
    <circle class="st1" cx="843.8" cy="531.9" r="10.7"/>
    <circle class="st1" cx="948.4" cy="598.4" r="10.7"/>
    <circle class="st1" cx="983.7" cy="605.1" r="10.7"/>
    <path class="st1" d="M789.4,438.3c-5.3,0-9.6,4.3-9.6,9.6c0,5.3,4.3,9.6,9.6,9.6c5.3,0,9.6-4.3,9.6-9.6
      C799.1,442.6,794.7,438.3,789.4,438.3z"/>
  </g>
  <g>
    <circle class="st2" cx="591.8" cy="680.3" r="39.1"/>
    
      <ellipse transform="matrix(0.7071 -0.7071 0.7071 0.7071 -230.7962 803.4665)" class="st2" cx="854.5" cy="680.3" rx="39.1" ry="39.1"/>
  </g>
  <path class="st3" d="M841.3,1329.6c-43.5,0-74.1-16.4-92.7-30.8c-22.1-17.2-32.3-35.3-32.7-36c0,0-0.1-0.1-0.1-0.1
    c-16-30.9-14.4-59.3-10.2-77.7c1.8-8.1,4.3-14.9,6.6-20.3c-15.3,3-43.1,5.2-82.5-4.3c-34.6-8.4-58.5-33.5-69.1-72.6
    c-8.1-29.8-6.5-61.7-3.4-75.8c1.5-6.8,3.8-14,10.1-16.1c7.2-2.4,13.9,3.4,23.2,11.4c4.4,3.8,9.5,8.2,15.4,12.4
    c12.5,9,18.7,9.1,31.1,9.3c9.4,0.2,21,0.3,39.4,4.4c34.8,7.6,64.3,34.4,75.9,46.3c7.7-12.2,23.4-40.4,20.2-63.6
    c-5.2-37.2-17.1-65.5-37.3-89.3c-18.1-21.2-40.6-36.2-64.5-52c-23.8-15.8-48.4-32.1-70.5-55.9c-25-27.1-42.8-60-54.3-100.6
    c-19.4-68.5-9.4-138.8,28.2-197.9c34.6-54.3,88.3-92.1,143.7-101.1l0,0c53.4-8.6,101.4-5.4,142.8,9.7
    c37.5,13.7,69.8,37.1,95.9,69.6c22.4,27.8,40.2,62.1,53.1,102.1c11.5,35.8,18.8,75.2,21.7,117.3c5.2,75.7-4.5,153.3-25.9,207.5
    c-45.9,116.3-105.9,158.4-149.7,189.1c-11.2,7.9-21.3,14.9-29.8,22.3c37.5,22.6,30,102.6,21.5,150.5c-0.2,0.9-0.3,1.7-0.4,2.2
    c-0.5,3.1,5.4,11.2,8.5,15.5c5.5,7.5,9.8,13.4,7.2,19.1c-1,2.1-3.3,4.7-8.5,5.1C849.8,1329.4,845.5,1329.6,841.3,1329.6z
     M726.4,1256.9c0.6,1,10.1,17.4,30,32.7c26.3,20.3,57.6,29.6,93.3,27.8c-1.2-1.7-2.6-3.8-3.8-5.3c-5.6-7.7-12-16.4-10.7-24.5
    c0.1-0.6,0.2-1.3,0.4-2.3c14.2-80.8,6.1-132.2-22.3-140.9c-2-0.6-3.6-2.3-4.1-4.3s0.1-4.2,1.6-5.7c10.5-10.3,23.2-19.2,37.9-29.5
    c42.6-29.9,100.8-70.7,145.4-183.7c38.6-97.8,44.1-301.8-47-414.9c-24.8-30.8-55.3-52.9-90.7-65.8c-39.4-14.4-85.4-17.4-136.8-9.1
    c-52.1,8.4-102.8,44.2-135.5,95.7c-35.8,56.2-45.3,123-26.8,188.2c24.6,86.6,73,118.7,119.9,149.8c48.8,32.3,94.9,62.8,107.1,149.6
    c4.9,35.2-25.2,76.6-26.4,78.4c-1.1,1.5-2.8,2.4-4.6,2.4c-1.8,0.1-3.6-0.7-4.8-2.1c-0.3-0.4-34.6-39.3-74.8-48.1
    c-17.2-3.8-28.2-3.9-37-4.1c-13-0.2-22.4-0.4-37.9-11.6c-6.3-4.6-11.8-9.3-16.2-13.1c-4.1-3.5-9.1-7.9-11.5-8.8
    c-0.5,0.8-1.4,2.7-2.3,7c-4.8,22.4-8.8,116.8,63.5,134.2c46.1,11.1,78.3,5.5,88.9,1c2.4-1,5.3-0.4,7,1.7c1.7,2,1.9,4.9,0.4,7.2
    c-0.1,0.1-7.6,11.6-11.6,29.5C711.9,1211.7,715,1234.9,726.4,1256.9z M718.8,425.1L718.8,425.1L718.8,425.1z"/>
    <path class="st3" d="M670.1,873.7c-29.6,28.3-59.6,44.7-89.2,48.6c-29.9,4-50.5-6-60.2-12.3c-15.3-10-19.6-20.7-18.4-23.9
      c2.8-7.8,7.7-9.1,17.5-10.9c9.3-1.8,20.9-4,30.5-16c31-38.7,46.2-48.1,46.5-48.3c2.8-1.7,3.8-5.3,2.2-8.2
      c-1.7-2.9-5.3-3.9-8.2-2.2c-0.7,0.4-16.8,9.9-49.9,51.1c-6.8,8.5-14.9,10.1-23.4,11.7c-10,1.9-21.2,4-26.5,18.6
      c-4,10.9,5.5,26.6,23.1,38.1c9.3,6.1,27.5,15.2,53.2,15.2c4.8,0,9.8-0.3,15.1-1c32.2-4.3,64.5-21.7,96-51.9
      c2.4-2.3,2.5-6.1,0.2-8.5C676.3,871.5,672.5,871.4,670.1,873.7z"/>
    <path class="st3" d="M1031.6,837.7c-2.4-2.6-4.5-4.9-5.3-6c-10.8-14.9-66.9-89-104.3-83.5c-3.3,0.5-5.5,3.5-5.1,6.8
      c0.5,3.3,3.5,5.5,6.8,5.1c10.6-1.6,27.3,7.7,47.1,26.1c21.9,20.4,40.6,45.4,45.8,52.6c1.2,1.7,3.3,3.9,6.2,7.1
      c9.8,10.7,32.7,35.8,26.1,49.8c-3.2,6.7-17,17.5-73.7,14.5c-35.2-1.9-62.2-13.7-80.4-35.1c-32-37.8-26-93.6-26-94.2
      c0.4-3.3-2-6.3-5.3-6.6c-3.3-0.4-6.3,2-6.7,5.3c-0.3,2.5-6.6,61.4,28.7,103.2c20.4,24.1,50.3,37.4,89,39.4
      c6.7,0.4,13,0.5,18.9,0.5c37.6,0,59.4-7.2,66.3-21.9C1069.8,879.5,1044.9,852.3,1031.6,837.7z"/>
  <g>
    <path class="st3" d="M737.6,657.9c-3.3,0.1-5.9,2.9-5.8,6.2c0,0,0,4.4-2.8,7.2c-2,2-5.1,3-9.3,3c-11.4,0-12.3-7.9-12.4-10.3
      c0-3.3-2.6-6-5.9-6.1c-3.3-0.1-6.1,2.5-6.1,5.9c0,0.9,0,9.4,6.3,15.8c4.4,4.5,10.4,6.7,18.1,6.7c7.6,0,13.7-2.3,18-6.8
      c6.2-6.5,6.1-14.9,6.1-15.8C743.7,660.4,740.9,657.8,737.6,657.9z"/>
    <path class="st3" d="M621.4,609.1c-6,0-11.5,1.9-16,5.2l-8.6-12.7c-1.9-2.7-5.6-3.5-8.3-1.6c-2.7,1.9-3.5,5.6-1.6,8.3l9.1,13.4
      c0.4,0.6,1,1.2,1.6,1.6c-2,3.8-3.2,8.1-3.2,12.7c0,14.9,12.1,27,27,27c14.9,0,27-12.1,27-27C648.4,621.2,636.3,609.1,621.4,609.1z
      "/>
    <path class="st3" d="M848.9,621.6l8.2-13.4c1.7-2.8,0.8-6.5-2-8.3c-2.8-1.7-6.5-0.8-8.3,2l-7.6,12.4c-4.5-3.3-10-5.2-15.9-5.2
      c-14.9,0-27,12.1-27,27c0,14.9,12.1,27,27,27c14.9,0,27-12.1,27-27c0-4.6-1.2-8.9-3.2-12.7C847.8,623,848.4,622.4,848.9,621.6z"/>
  </g>
  <path class="st3" d="M757.2,461.7c-2.6-5.2-26.9-54.6-52.8-102.7c-16-29.8-29.5-53.3-40-69.9c-14.5-22.7-23.9-34.5-32.4-31.4
    c-6.5,2.4-9.3,10.3-5.2,45.6c2.3,19.9,6.7,47.2,13.1,81c7.6,40.5,16.3,81,20.9,101.6c0,0,0,0,0,0c0,0,0,0,0,0
    c1.9,8.6,3.1,13.8,3.1,13.9c0.1,0.5,0.3,0.9,0.5,1.3c0.4,0.7,3.9,7.3,13.8,10.7c4,1.4,8.3,2,13.1,2c9.7,0,21-2.8,33.9-8.2
    c20.2-8.6,31.7-18.4,34.4-29.3C761.5,469,758.5,463.6,757.2,461.7z M659.3,420.5c10-2.2,30.4-9.1,48.5-29.7
    c2.8,5.4,5.5,10.6,8.2,15.8c-5.6,13.3-20,23-31.4,28.9c-7.9,4.1-15.5,6.9-20.4,8.6C662.6,436.6,660.9,428.7,659.3,420.5z
     M663.6,310.6c2.4,4,4.9,8.4,7.7,13.2c-7.1,11.8-19,18.3-26.1,21.3c-1.3-7.6-2.4-14.4-3.3-20.6
    C646.7,322.5,656.6,317.8,663.6,310.6z M647.2,357.1c7.4-2.7,20.8-9.1,30.6-21.7c2.7,4.8,5.6,10,8.6,15.5
    c-1.7,2.8-5.8,8.4-14.8,15.6c-8,6.4-15.6,9.9-20.5,11.8C649.6,370.7,648.4,363.7,647.2,357.1z M653.3,390.2
    c5.9-2,15.5-6.2,25.7-14.3c6.4-5.1,10.7-9.6,13.7-13.3c1.4,2.6,2.8,5.2,4.2,7.9c1.6,3,3.2,5.9,4.7,8.9c-8.8,11.2-19.5,19.6-31.9,25
    c-5.2,2.3-9.7,3.6-12.9,4.3C655.7,402.6,654.5,396.4,653.3,390.2z M666.6,455.9c12.1-3.9,41.7-15.3,55.9-36.5
    c3.3,6.5,6.4,12.6,9.2,18.1c-1,2.9-5.6,13.4-21.6,23.3c-13.8,8.5-30.4,13.9-39,16.4C669.9,471.2,668.3,464,666.6,455.9z
     M637.1,271.6c3.3,3.4,9.3,11,20,28.2c-3.9,5.4-11.4,9.8-17,12.3C636.8,288,636.6,276.8,637.1,271.6z M748,473.7
    c-1,3.9-5.8,11.9-27.4,21.1c-19.7,8.4-31.2,8-37.4,6.2c-4.8-1.4-7-3.7-7.7-4.7c-0.3-1.3-0.8-3.8-1.6-7.3
    c9.1-2.5,27.2-8.4,42.7-17.9c11.2-6.9,17.9-14.4,21.8-20.4c5.1,10.2,8.2,16.5,8.3,16.7c0.2,0.4,0.5,0.8,0.8,1.2
    C747.4,468.6,748.8,470.6,748,473.7z"/>
  <path class="st11" d="M461,302"/>
  <g>
    <path class="st12" d="M542,309c0,41-41,41-41,41s41,0,41,41c0-41,41-41,41-41S542,350,542,309z"/>
    <path class="st12" d="M670,139c0,41-41,41-41,41s41,0,41,41c0-41,41-41,41-41S670,180,670,139z"/>
    <path class="st12" d="M769,240c0,41-41,41-41,41s41,0,41,41c0-41,41-41,41-41S769,281,769,240z"/>
  </g>
  <path class="st0" d="M862.8,780.1c0,0-15,129.3,112,136c143,7.6,55.5-68.6,46.6-80.9c-21.9-30.1-69.5-85.4-98.6-81.1"/>
  <g>
    
  </g>
  <g id="dontTouch_1_">
    <circle class="st13" cx="627" cy="627.1" r="9.5"/>
    <circle class="st13" cx="829.1" cy="627.1" r="9.5"/>
  </g>
</g>
<polygon class="st4" points="664.4,485.5 706,466.4 740.1,440.9 755.8,473.3 741.1,494.4 698.1,506.1 671.5,505.2  "/>
  <polygon class="st5" points="666.7,484.7 660.7,452 695.8,436.6 726.2,404.6 737.8,442.6 709.5,465.1  "/>
  <polygon class="st6" points="656.3,449 654.7,415.5 679,406.6 709.2,381.2 722.4,406.6 701.3,430.8  "/>
  <polygon class="st7" points="651.9,415.2 646.8,386.8 664.6,377.7 691.2,353.6 709.2,381.2 694.5,395.1  "/>
  <polygon class="st8" points="645.2,382.2 644.7,352.1 671.9,333 677.1,321.9 691.2,353.6 670.7,372.9  "/>
  <polygon class="st9" points="638.8,350.3 636.8,319.5 658.7,307.6 666,302.3 679.9,326.1 660.9,340.7  "/>
  <polygon class="st10" points="632.9,319.6 635.2,261 648.8,273.1 663.3,302 645.7,314.7   "/>
</svg>
