<?xml version="1.0" encoding="iso-8859-1"?>
<!-- Generator: Adobe Illustrator 19.0.0, SVG Export Plug-In . SVG Version: 6.00 Build 0)  -->
<svg version="1.1" id="mainColor:randomColor;colorPalette:colorPalette" xmlns="http://www.w3.org/2000/svg" xmlns:xlink="http://www.w3.org/1999/xlink" x="0px" y="0px"
	 viewBox="0 0 512 512" style="enable-background:new 0 0 512 512;" xml:space="preserve">
<polygon style="fill:#EDEDEE;" points="326.621,503.172 185.379,503.172 211.862,141.241 300.138,141.241 "/>
<polygon style="fill:#CAC9CD;" points="207.551,203.034 304.449,203.034 302.601,176.552 209.399,176.552 "/>
<rect x="211.862" y="52.966" style="fill:#DCDBDE;" width="88.276" height="61.793"/>
<path id="palleteColor" style="fill:#EDEDEE;" d="M313.379,123.586H198.621c-2.438,0-4.414-1.976-4.414-4.414v-8.828c0-2.438,1.976-4.414,4.414-4.414
	h114.759c2.438,0,4.414,1.976,4.414,4.414v8.828C317.793,121.61,315.817,123.586,313.379,123.586z"/>
<path id="palleteColor"  style="fill:#A7A5AC;" d="M264.828,18.367V8.828C264.828,3.953,260.875,0,256,0s-8.828,3.953-8.828,8.828v9.539
	c-20.146,3.272-35.31,17.516-35.31,34.599h88.276C300.138,35.883,284.973,21.639,264.828,18.367z"/>
<polygon id="palleteColor" style="fill:#DCDBDE;" points="203.034,123.586 211.862,141.241 300.138,141.241 308.966,123.586 "/>
<path style="fill:#B4E1FA;" d="M260.414,105.931h-48.552V52.966h48.552c2.438,0,4.414,1.976,4.414,4.414v44.138
	C264.828,103.955,262.851,105.931,260.414,105.931z"/>
<path id="palleteColor"  style="fill:#A0D2F0;" d="M260.414,52.966h-48.552v17.655h48.552c2.438,0,4.414,1.976,4.414,4.414V57.379
	C264.828,54.942,262.851,52.966,260.414,52.966z"/>
<path id="palleteColor" style="fill:#DCDBDE;" d="M322.207,167.724H189.793c-2.438,0-4.414,1.976-4.414,4.414v8.828c0,2.438,1.976,4.414,4.414,4.414
	h4.414l12.259,23.228c1.057,2.002,3.134,3.255,5.398,3.255h3.793c2.476,0,4.225-2.426,3.442-4.776l-7.236-21.707h17.655
	l3.656,21.938c0.452,2.713,1.722,4.545,3.153,4.545h4.038c1.43,0,2.7-1.831,3.153-4.545l3.657-21.938h17.655l3.656,21.938
	c0.452,2.713,1.723,4.545,3.153,4.545h4.038c1.43,0,2.7-1.831,3.153-4.545l3.657-21.938h17.655l-7.235,21.707
	c-0.783,2.349,0.966,4.776,3.442,4.776h3.793c2.263,0,4.341-1.252,5.398-3.255l12.258-23.228h4.414c2.438,0,4.414-1.976,4.414-4.414
	v-8.828C326.621,169.7,324.644,167.724,322.207,167.724z"/>
<path id="palleteColor" style="fill:#EDEDEE;" d="M334.627,503.172l-5.257-57.686c-0.161-2.313-2.084-4.107-4.403-4.107H187.032
	c-2.318,0-4.242,1.794-4.403,4.107l-5.257,57.686H334.627z"/>
<g>
	<polygon id="palleteColor"  style="fill:#FF6464;" points="201.393,291.31 310.607,291.31 305.681,220.69 206.319,220.69 	"/>
	<polygon style="fill:#FF6464;" points="190.922,441.379 321.078,441.379 317.383,388.414 194.617,388.414 	"/>
	<path style="fill:#FF6464;" d="M269.241,459.034h-26.483c-2.438,0-4.414,1.976-4.414,4.414v39.724h35.31v-39.724
		C273.655,461.011,271.679,459.034,269.241,459.034z"/>
</g>
<path id="palleteColor" style="fill:#A7A5AC;" d="M348.69,512H163.31c-2.438,0-4.414-1.976-4.414-4.414v-8.828c0-2.438,1.976-4.414,4.414-4.414H348.69
	c2.438,0,4.414,1.976,4.414,4.414v8.828C353.103,510.024,351.127,512,348.69,512z"/>
<path style="fill:#625D6B;" d="M260.414,273.655h-8.828c-2.438,0-4.414-1.976-4.414-4.414v-17.655c0-2.438,1.976-4.414,4.414-4.414
	h8.828c2.438,0,4.414,1.976,4.414,4.414v17.655C264.828,271.679,262.851,273.655,260.414,273.655z"/>
<path id="palleteColor" style="fill:#504B5A;" d="M260.414,247.172h-8.828c-2.438,0-4.414,1.976-4.414,4.414v17.655c0-2.438,1.976-4.414,4.414-4.414
	h8.828c2.438,0,4.414,1.976,4.414,4.414v-17.655C264.828,249.149,262.851,247.172,260.414,247.172z"/>
<path id="palleteColor"  style="fill:#625D6B;" d="M260.414,370.759h-8.828c-2.438,0-4.414-1.976-4.414-4.414V348.69c0-2.438,1.976-4.414,4.414-4.414
	h8.828c2.438,0,4.414,1.976,4.414,4.414v17.655C264.828,368.782,262.851,370.759,260.414,370.759z"/>
<path id="palleteColor" style="fill:#504B5A;" d="M260.414,344.276h-8.828c-2.438,0-4.414,1.976-4.414,4.414v17.655c0-2.438,1.976-4.414,4.414-4.414
	h8.828c2.438,0,4.414,1.976,4.414,4.414V348.69C264.828,346.252,262.851,344.276,260.414,344.276z"/>
<g>
</g>
<g>
</g>
<g>
</g>
<g>
</g>
<g>
</g>
<g>
</g>
<g>
</g>
<g>
</g>
<g>
</g>
<g>
</g>
<g>
</g>
<g>
</g>
<g>
</g>
<g>
</g>
<g>
</g>
</svg>
