<?xml version="1.0" encoding="utf-8"?>
<!-- Generator: Adobe Illustrator 22.1.0, SVG Export Plug-In . SVG Version: 6.00 Build 0)  -->
<svg version="1.1" id="colorPalette:colorPalette" xmlns="http://www.w3.org/2000/svg" xmlns:xlink="http://www.w3.org/1999/xlink" x="0px" y="0px"
         viewBox="0 0 300 300" style="enable-background:new 0 0 300 300;" xml:space="preserve">
<style type="text/css">
        .st0{fill:#FFFFFF;}
        .st1{fill:#4A89DC;}
        .st2{fill:#5D9CEC;}
        .st3{fill:#080808;}
</style>
<g id="ID_1_">
        <rect id="palleteColor;isMainColor" x="-0.3" y="0.3" class="st0" width="300.6" height="298.8"/>
</g>
<polygon id="colorMaxContrast" class="st1" points="245.6,76.2 226.2,76.2 89.1,130.4 53.4,115.7 33.7,124.4 86.6,172.6 253.1,108.2 
        257.5,87.5 "/>
<polygon id="lastUsedColor" class="st2" points="95.8,70 70,81.7 133.4,134.3 197.2,111.6 "/>
<g id="ID_x5F_1">
        <path  id="colorMaxContrastMain" class="st3" d="M260.3,229.8H29.9c-2.8,0-5,2.2-5,5s2.2,5,5,5h230.4c2.8,0,5-2.2,5-5S263.1,229.8,260.3,229.8z"/>
        <path class="st3" d="M26.8,130.4l56.9,45.9c0.9,0.7,2,1.1,3.1,1.1c0.6,0,1.2-0.1,1.7-0.3l160.7-58.5c0.7-0.3,1.4-0.7,2-1.3
                c0.2-0.2,4.3-4.6,8-10.4c5.5-8.6,7.3-15.8,5.3-21.4s-8-10-17.8-13c-6.5-2-12.5-2.8-12.8-2.8c-0.8-0.1-1.6,0-2.3,0.3l-59.9,21.8
                l-72.2-28c-1.1-0.4-2.4-0.4-3.5,0L66.6,74.6c-1.7,0.6-2.9,2.1-3.2,3.8c-0.3,1.8,0.3,3.6,1.7,4.7l39.3,33.3l-18,6.5l-24.9-11.6
                c-1.2-0.6-2.6-0.6-3.8-0.2l-29.4,10.7c-1.7,0.6-2.9,2.1-3.2,3.9C24.7,127.5,25.4,129.3,26.8,130.4z M97.7,73.9l89.3,34.6L133.5,128
                L78.1,81L97.7,73.9z M59.1,121.3L84,132.9c1.2,0.6,2.6,0.6,3.8,0.2l25.3-9.2l16.1,13.7c0.9,0.8,2.1,1.2,3.2,1.2
                c0.6,0,1.2-0.1,1.7-0.3l68.7-25c2-0.7,3.3-2.6,3.3-4.7s-1.3-4-3.2-4.7l-17.1-6.6l48-17.5c8.3,1.2,19.7,4.9,21.2,9.2
                c0.9,2.4-0.7,7-4.2,12.5c-2.3,3.7-4.9,6.8-6.2,8.2L87.8,166.8L40,128.2L59.1,121.3z"/>
</g>
</svg>